<svg width="47" height="47" viewBox="0 0 47 47" fill="none" xmlns="http://www.w3.org/2000/svg">
<mask id="path-1-inside-1_72_1470" fill="white">
<path fill-rule="evenodd" clip-rule="evenodd" d="M46.8182 21.8188C46.8182 21.8187 46.8182 21.8187 46.8182 21.8186C46.8182 9.76868 37.0499 0.000329364 25 0.000329364L25 21.8188L46.8182 21.8188Z"/>
</mask>
<path d="M46.8182 21.8188V23.8188H48.8182V21.8188H46.8182ZM25 0.000329364V-1.99967H23V0.000329364H25ZM25 21.8188H23V23.8188L25 23.8188V21.8188ZM48.8182 21.8188C48.8182 21.8188 48.8182 21.8188 48.8182 21.8187C48.8182 21.8187 48.8182 21.8186 48.8182 21.8186H44.8182C44.8182 21.8186 44.8182 21.8186 44.8182 21.8187C44.8182 21.8187 44.8182 21.8188 44.8182 21.8188H48.8182ZM48.8182 21.8186C48.8182 8.66411 38.1545 -1.99967 25 -1.99967V2.00033C35.9453 2.00033 44.8182 10.8733 44.8182 21.8186H48.8182ZM23 0.000329364L23 21.8188H27L27 0.000329364H23ZM25 23.8188L46.8182 23.8188V19.8188L25 19.8188V23.8188Z" fill="#6D0FA6" mask="url(#path-1-inside-1_72_1470)"/>
<mask id="path-3-inside-2_72_1470" fill="white">
<path fill-rule="evenodd" clip-rule="evenodd" d="M25 46.8188C25.0001 46.8188 25.0002 46.8188 25.0003 46.8188C37.0502 46.8188 46.8185 37.0505 46.8185 25.0006L25 25.0006L25 46.8188Z"/>
</mask>
<path d="M25 46.8188H23L23 48.8188H25V46.8188ZM46.8185 25.0006H48.8185V23.0006H46.8185V25.0006ZM25 25.0006V23.0006H23L23 25.0006L25 25.0006ZM25 48.8188C25 48.8188 25.0001 48.8188 25.0001 48.8188C25.0002 48.8188 25.0002 48.8188 25.0003 48.8188V44.8188C25.0003 44.8188 25.0002 44.8188 25.0002 44.8188C25.0001 44.8188 25.0001 44.8188 25 44.8188V48.8188ZM25.0003 48.8188C38.1547 48.8188 48.8185 38.1551 48.8185 25.0006H44.8185C44.8185 35.9459 35.9456 44.8188 25.0003 44.8188V48.8188ZM46.8185 23.0006L25 23.0006V27.0006L46.8185 27.0006V23.0006ZM23 25.0006L23 46.8188H27L27 25.0006L23 25.0006Z" fill="#F945BC" fill-opacity="0.99" mask="url(#path-3-inside-2_72_1470)"/>
<path fill-rule="evenodd" clip-rule="evenodd" d="M21.8185 0.000488283C21.8184 0.000488283 21.8183 0.000488281 21.8182 0.000488281C9.76835 0.000488281 -6.32891e-06 9.76884 -6.32891e-06 21.8187L21.8185 21.8187L21.8185 0.000488283Z" fill="url(#paint0_linear_72_1470)"/>
<mask id="path-6-inside-3_72_1470" fill="white">
<path fill-rule="evenodd" clip-rule="evenodd" d="M1.96002e-09 25.0005C1.96002e-09 25.0006 0 25.0007 0 25.0008C0 37.0507 9.76835 46.819 21.8182 46.819V25.0005H1.96002e-09Z"/>
</mask>
<path d="M1.96002e-09 25.0005L1.96002e-09 23.0005H-2V25.0005H1.96002e-09ZM21.8182 46.819V48.819H23.8182V46.819H21.8182ZM21.8182 25.0005H23.8182V23.0005H21.8182V25.0005ZM-2 25.0005C-2 25.0005 -2 25.0006 -2 25.0006C-2 25.0007 -2 25.0007 -2 25.0008H2C2 25.0007 2 25.0007 2 25.0007C2 25.0006 2 25.0005 2 25.0005H-2ZM-2 25.0008C-2 38.1552 8.66378 48.819 21.8182 48.819V44.819C10.8729 44.819 2 35.9461 2 25.0008H-2ZM23.8182 46.819V25.0005H19.8182V46.819H23.8182ZM21.8182 23.0005H1.96002e-09L1.96002e-09 27.0005H21.8182V23.0005Z" fill="#6D0FA6" mask="url(#path-6-inside-3_72_1470)"/>
<defs>
<linearGradient id="paint0_linear_72_1470" x1="37.9642" y1="-17.4541" x2="0.000359433" y2="10.9101" gradientUnits="userSpaceOnUse">
<stop stop-color="#EF913C"/>
<stop offset="1" stop-color="#EF913C"/>
</linearGradient>
</defs>
</svg>
