<svg width="48" height="48" viewBox="0 0 48 48" fill="none" xmlns="http://www.w3.org/2000/svg">
<path fill-rule="evenodd" clip-rule="evenodd" d="M3.05192e-05 26.1821C3.05181e-05 26.1822 3.05176e-05 26.1823 3.05176e-05 26.1824C3.05176e-05 38.2323 9.76838 48.0006 21.8183 48.0006V26.1821H3.05192e-05Z" fill="url(#paint0_linear_72_1429)"/>
<path fill-rule="evenodd" clip-rule="evenodd" d="M48 0.000488281C35.9502 0.000515082 26.1819 9.76884 26.1819 21.8187L48 21.8187L48 0.000488281Z" fill="url(#paint1_linear_72_1429)"/>
<path fill-rule="evenodd" clip-rule="evenodd" d="M21.8182 21.8184C21.8182 21.8183 21.8182 21.8182 21.8182 21.8181C21.8182 9.76819 12.0499 -0.000158917 -2.51423e-06 -0.000158917L-2.51423e-06 21.8184L21.8182 21.8184Z" fill="url(#paint2_linear_72_1429)"/>
<path fill-rule="evenodd" clip-rule="evenodd" d="M26.1818 48.0005C38.2317 48.0005 48 38.2322 48.0001 26.1824H26.1818L26.1818 48.0005Z" fill="url(#paint3_linear_72_1429)"/>
<defs>
<linearGradient id="paint0_linear_72_1429" x1="6.5455" y1="21.8184" x2="28.5003" y2="54.9998" gradientUnits="userSpaceOnUse">
<stop stop-color="#EF913C"/>
<stop offset="1" stop-color="#F945BC" stop-opacity="0.99"/>
</linearGradient>
<linearGradient id="paint1_linear_72_1429" x1="21.8182" y1="16.5823" x2="48" y2="21.8187" gradientUnits="userSpaceOnUse">
<stop stop-color="#EF913C"/>
<stop offset="1" stop-color="#F945BC" stop-opacity="0.99"/>
</linearGradient>
<linearGradient id="paint2_linear_72_1429" x1="39.2728" y1="37.9641" x2="10.9086" y2="0.000206845" gradientUnits="userSpaceOnUse">
<stop stop-color="#F945BC" stop-opacity="0.99"/>
<stop offset="1" stop-color="#EF913C"/>
</linearGradient>
<linearGradient id="paint3_linear_72_1429" x1="13.5" y1="14.5" x2="45.5" y2="44.5" gradientUnits="userSpaceOnUse">
<stop stop-color="#EF913C"/>
<stop offset="1" stop-color="#F945BC" stop-opacity="0.99"/>
</linearGradient>
</defs>
</svg>
