<svg width="28" height="28" viewBox="0 0 28 28" fill="none" xmlns="http://www.w3.org/2000/svg">
<path d="M9.33354 28C11.9093 28 14 25.9098 14 23.3335V18.667H9.33354C6.75776 18.667 4.66705 20.7572 4.66705 23.3335C4.66705 25.9098 6.75776 28 9.33354 28Z" fill="#0ACF83"/>
<path d="M4.6665 14C4.6665 11.4242 6.75666 9.33353 9.33299 9.33353H14V18.667H9.33353C6.75775 18.6665 4.6665 16.5758 4.6665 14Z" fill="#A259FF"/>
<path d="M4.6665 4.66648C4.6665 2.09016 6.75721 0 9.33299 0H14V9.33351H9.33353C6.75775 9.33351 4.6665 7.24227 4.6665 4.66648Z" fill="#F24E1E"/>
<path d="M14 0H18.6665C21.2423 0 23.333 2.09016 23.333 4.66648C23.333 7.24281 21.2428 9.33297 18.6665 9.33297H14V0Z" fill="#FF7262"/>
<path d="M21.9657 17.2996C23.7881 15.4773 23.7881 12.5227 21.9657 10.7003C20.1434 8.87794 17.1887 8.87794 15.3664 10.7003C13.544 12.5227 13.544 15.4773 15.3664 17.2996C17.1887 19.122 20.1434 19.122 21.9657 17.2996Z" fill="#1ABCFE"/>
</svg>
