<svg width="24" height="24" viewBox="0 0 24 24" fill="none" xmlns="http://www.w3.org/2000/svg">
<g clip-path="url(#clip0_821_380)">
<g filter="url(#filter0_d_821_380)">
<path fill-rule="evenodd" clip-rule="evenodd" d="M7.9399 13.06C7.659 12.7788 7.50122 12.3975 7.50122 12C7.50122 11.6025 7.659 11.2213 7.9399 10.94L13.5959 5.28202C13.8773 5.00076 14.2589 4.8428 14.6568 4.8429C14.8538 4.84294 15.0488 4.88179 15.2308 4.95722C15.4128 5.03265 15.5781 5.14319 15.7174 5.28252C15.8567 5.42185 15.9671 5.58725 16.0425 5.76928C16.1178 5.9513 16.1566 6.14638 16.1565 6.34338C16.1565 6.54038 16.1176 6.73544 16.0422 6.91742C15.9668 7.09941 15.8562 7.26476 15.7169 7.40402L11.1209 12L15.7169 16.596C15.8602 16.7343 15.9746 16.8998 16.0533 17.0828C16.132 17.2657 16.1734 17.4625 16.1753 17.6617C16.1771 17.8609 16.1392 18.0584 16.0639 18.2428C15.9886 18.4272 15.8773 18.5947 15.7365 18.7356C15.5957 18.8765 15.4283 18.988 15.244 19.0635C15.0597 19.139 14.8622 19.177 14.663 19.1754C14.4638 19.1738 14.267 19.1325 14.084 19.0539C13.9009 18.9754 13.7353 18.8612 13.5969 18.718L7.9379 13.06H7.9399Z" fill="#EF913C"/>
</g>
</g>
<defs>
<filter id="filter0_d_821_380" x="-2.49878" y="-3.1571" width="28.6741" height="34.3325" filterUnits="userSpaceOnUse" color-interpolation-filters="sRGB">
<feFlood flood-opacity="0" result="BackgroundImageFix"/>
<feColorMatrix in="SourceAlpha" type="matrix" values="0 0 0 0 0 0 0 0 0 0 0 0 0 0 0 0 0 0 127 0" result="hardAlpha"/>
<feOffset dy="2"/>
<feGaussianBlur stdDeviation="5"/>
<feComposite in2="hardAlpha" operator="out"/>
<feColorMatrix type="matrix" values="0 0 0 0 0.95 0 0 0 0 0.265208 0 0 0 0 0.429558 0 0 0 0.6 0"/>
<feBlend mode="normal" in2="BackgroundImageFix" result="effect1_dropShadow_821_380"/>
<feBlend mode="normal" in="SourceGraphic" in2="effect1_dropShadow_821_380" result="shape"/>
</filter>
<clipPath id="clip0_821_380">
<rect width="24" height="24" fill="white"/>
</clipPath>
</defs>
</svg>
