<svg width="348" height="348" viewBox="0 0 348 348" fill="none" xmlns="http://www.w3.org/2000/svg">
<g filter="url(#filter0_d_69_5251)">
<rect x="52.6504" y="51.0787" width="240.456" height="240.456" fill="#28233B"/>
<rect x="55.3254" y="53.7537" width="235.106" height="235.106" stroke="#EF913C" stroke-width="5.35"/>
</g>
<g filter="url(#filter1_d_69_5251)">
<mask id="path-3-inside-1_69_5251" fill="white">
<rect x="4" y="173.1" width="240.456" height="240.456" rx="1.39077" transform="rotate(-46.0448 4 173.1)"/>
</mask>
<rect x="4" y="173.1" width="240.456" height="240.456" rx="1.39077" transform="rotate(-46.0448 4 173.1)" fill="url(#paint0_radial_69_5251)"/>
<rect x="4" y="173.1" width="240.456" height="240.456" rx="1.39077" transform="rotate(-46.0448 4 173.1)" stroke="#EF913C" stroke-width="12.7" mask="url(#path-3-inside-1_69_5251)"/>
</g>
<path d="M143.498 172.35V165.342H160.928C164.312 165.342 167.037 164.803 169.104 163.725C171.2 162.617 172.727 161.104 173.686 159.188C174.674 157.271 175.168 155.085 175.168 152.629C175.168 150.383 174.674 148.271 173.686 146.295C172.727 144.318 171.2 142.716 169.104 141.488C167.037 140.26 164.312 139.646 160.928 139.646H145.475V198H136.76V132.594H160.928C165.869 132.594 170.047 133.447 173.461 135.154C176.875 136.861 179.465 139.212 181.232 142.207C182.999 145.202 183.883 148.646 183.883 152.539C183.883 156.732 182.999 160.311 181.232 163.275C179.465 166.24 176.875 168.501 173.461 170.059C170.047 171.586 165.869 172.35 160.928 172.35H143.498ZM175.887 193.643C175.887 192.235 176.321 191.052 177.189 190.094C178.088 189.105 179.376 188.611 181.053 188.611C182.76 188.611 184.048 189.105 184.916 190.094C185.814 191.052 186.264 192.235 186.264 193.643C186.264 195.02 185.814 196.173 184.916 197.102C184.048 198.03 182.76 198.494 181.053 198.494C179.376 198.494 178.088 198.03 177.189 197.102C176.321 196.173 175.887 195.02 175.887 193.643ZM210.701 198H201.986V132.594H210.701V198Z" fill="white"/>
<defs>
<filter id="filter0_d_69_5251" x="48.6504" y="51.0787" width="248.456" height="248.456" filterUnits="userSpaceOnUse" color-interpolation-filters="sRGB">
<feFlood flood-opacity="0" result="BackgroundImageFix"/>
<feColorMatrix in="SourceAlpha" type="matrix" values="0 0 0 0 0 0 0 0 0 0 0 0 0 0 0 0 0 0 127 0" result="hardAlpha"/>
<feOffset dy="4"/>
<feGaussianBlur stdDeviation="2"/>
<feComposite in2="hardAlpha" operator="out"/>
<feColorMatrix type="matrix" values="0 0 0 0 0 0 0 0 0 0 0 0 0 0 0 0 0 0 0.25 0"/>
<feBlend mode="normal" in2="BackgroundImageFix" result="effect1_dropShadow_69_5251"/>
<feBlend mode="normal" in="SourceGraphic" in2="effect1_dropShadow_69_5251" result="shape"/>
</filter>
<filter id="filter1_d_69_5251" x="0.575684" y="0.575806" width="346.849" height="346.848" filterUnits="userSpaceOnUse" color-interpolation-filters="sRGB">
<feFlood flood-opacity="0" result="BackgroundImageFix"/>
<feColorMatrix in="SourceAlpha" type="matrix" values="0 0 0 0 0 0 0 0 0 0 0 0 0 0 0 0 0 0 127 0" result="hardAlpha"/>
<feOffset dy="4"/>
<feGaussianBlur stdDeviation="2"/>
<feComposite in2="hardAlpha" operator="out"/>
<feColorMatrix type="matrix" values="0 0 0 0 0 0 0 0 0 0 0 0 0 0 0 0 0 0 0.25 0"/>
<feBlend mode="normal" in2="BackgroundImageFix" result="effect1_dropShadow_69_5251"/>
<feBlend mode="normal" in="SourceGraphic" in2="effect1_dropShadow_69_5251" result="shape"/>
</filter>
<radialGradient id="paint0_radial_69_5251" cx="0" cy="0" r="1" gradientUnits="userSpaceOnUse" gradientTransform="translate(11.2137 185.123) rotate(44.4032) scale(326.472)">
<stop stop-color="#F2446E"/>
<stop offset="1" stop-color="#EF913C"/>
</radialGradient>
</defs>
</svg>
