<svg width="154" height="154" viewBox="0 0 154 154" fill="none" xmlns="http://www.w3.org/2000/svg">
<path d="M154 77C153.996 56.5796 145.882 36.9967 131.443 22.5573C117.003 8.11787 97.4204 0.00408286 77 0V15.4C89.1821 15.4028 101.09 19.0162 111.22 25.7837C121.349 32.5513 129.245 42.1693 133.911 53.4226C137.007 60.8975 138.6 68.9092 138.6 77H154ZM0 61.6V23.1C0 21.0578 0.811247 19.0993 2.25528 17.6553C3.69931 16.2112 5.65783 15.4 7.7 15.4H46.2C48.2422 15.4 50.2007 16.2112 51.6447 17.6553C53.0887 19.0993 53.9 21.0578 53.9 23.1V53.9C53.9 55.9422 53.0887 57.9007 51.6447 59.3447C50.2007 60.7887 48.2422 61.6 46.2 61.6H30.8C30.8 77.9373 37.29 93.6055 48.8422 105.158C60.3945 116.71 76.0627 123.2 92.4 123.2V107.8C92.4 105.758 93.2113 103.799 94.6553 102.355C96.0993 100.911 98.0578 100.1 100.1 100.1H130.9C132.942 100.1 134.901 100.911 136.345 102.355C137.789 103.799 138.6 105.758 138.6 107.8V146.3C138.6 148.342 137.789 150.301 136.345 151.745C134.901 153.189 132.942 154 130.9 154H92.4C41.3721 154 0 112.628 0 61.6Z" fill="url(#paint0_linear_49_3887)"/>
<path d="M119.681 59.3206C122.005 64.9249 123.201 70.9327 123.2 76.9998H109.34C109.341 72.7526 108.505 68.5468 106.88 64.6226C105.255 60.6985 102.873 57.133 99.8701 54.1297C96.8668 51.1265 93.3013 48.7444 89.3772 47.1195C85.4531 45.4946 81.2472 44.6588 77 44.6598V30.7998C86.1372 30.8003 95.0691 33.5102 102.666 38.5868C110.263 43.6635 116.185 50.8789 119.681 59.3206Z" fill="url(#paint1_linear_49_3887)"/>
<defs>
<linearGradient id="paint0_linear_49_3887" x1="77" y1="0" x2="77" y2="154" gradientUnits="userSpaceOnUse">
<stop stop-color="#EF913C"/>
<stop offset="1" stop-color="#F945BC" stop-opacity="0.99"/>
</linearGradient>
<linearGradient id="paint1_linear_49_3887" x1="100.1" y1="30.7998" x2="100.1" y2="76.9998" gradientUnits="userSpaceOnUse">
<stop stop-color="#EF913C"/>
<stop offset="1" stop-color="#F945BC" stop-opacity="0.99"/>
</linearGradient>
</defs>
</svg>
