<svg width="20" height="20" viewBox="0 0 20 20" fill="none" xmlns="http://www.w3.org/2000/svg">
<path d="M1.66667 11.6668C1.22464 11.6668 0.800716 11.4912 0.488156 11.1787C0.175595 10.8661 0 10.4422 0 10.0002C0 9.55814 0.175595 9.13421 0.488156 8.82165C0.800716 8.50909 1.22464 8.3335 1.66667 8.3335H18.3333C18.7754 8.3335 19.1993 8.50909 19.5118 8.82165C19.8244 9.13421 20 9.55814 20 10.0002C20 10.4422 19.8244 10.8661 19.5118 11.1787C19.1993 11.4912 18.7754 11.6668 18.3333 11.6668H1.66667Z" fill="white"/>
<path d="M8.33331 1.66667C8.33331 1.22464 8.50891 0.800716 8.82147 0.488156C9.13403 0.175595 9.55795 0 9.99998 0C10.442 0 10.8659 0.175595 11.1785 0.488156C11.4911 0.800716 11.6666 1.22464 11.6666 1.66667V18.3333C11.6666 18.7754 11.4911 19.1993 11.1785 19.5118C10.8659 19.8244 10.442 20 9.99998 20C9.55795 20 9.13403 19.8244 8.82147 19.5118C8.50891 19.1993 8.33331 18.7754 8.33331 18.3333V1.66667Z" fill="white"/>
</svg>
