<svg width="24" height="24" viewBox="0 0 24 24" fill="none" xmlns="http://www.w3.org/2000/svg">
<path d="M23.5732 14.3765C23.4333 13.9528 23.0667 13.6576 22.5927 13.5868C22.3692 13.5534 22.1133 13.5677 21.8104 13.6301C21.2825 13.739 20.8908 13.7805 20.605 13.7885C21.6839 11.9669 22.5612 9.88949 23.0663 7.93401C23.8829 4.77212 23.4465 3.33168 22.9365 2.68008C21.5869 0.955576 19.6178 0.0290843 17.2421 0.000683818C15.9749 -0.0147829 14.8624 0.235432 14.2821 0.41532C13.7417 0.320041 13.1606 0.266797 12.551 0.256935C11.4083 0.23872 10.3986 0.487803 9.53589 0.999766C9.05815 0.838309 8.29166 0.61062 7.40639 0.465277C5.32426 0.123447 3.64621 0.38983 2.41879 1.25693C0.932484 2.30683 0.243435 4.13093 0.370887 6.67862C0.411305 7.48752 0.863827 9.94856 1.57626 12.2826C1.98573 13.6241 2.42235 14.7382 2.87401 15.5941C3.5145 16.8078 4.19983 17.5225 4.96923 17.7792C5.40052 17.9229 6.18404 18.0235 7.00819 17.3372C7.11263 17.4636 7.25194 17.5894 7.43695 17.7061C7.6718 17.8542 7.95904 17.9753 8.24585 18.047C9.27964 18.3055 10.2479 18.2408 11.074 17.8786C11.0791 18.0255 11.083 18.1659 11.0864 18.2871C11.0919 18.4837 11.0973 18.6765 11.1045 18.8568C11.1534 20.0759 11.2364 21.0238 11.4821 21.687C11.4956 21.7235 11.5137 21.7791 11.5329 21.838C11.6555 22.2134 11.8605 22.8417 12.382 23.3339C12.9222 23.8437 13.5754 24.0001 14.1737 24C14.4738 24 14.7601 23.9607 15.0112 23.9068C15.9064 23.715 16.923 23.4227 17.6584 22.3756C18.3536 21.3857 18.6916 19.8948 18.7528 17.5454C18.7607 17.479 18.768 17.4156 18.7751 17.3552C18.7798 17.3144 18.7847 17.2726 18.7896 17.231L18.9534 17.2454L18.9956 17.2483C19.9073 17.2898 21.0221 17.0965 21.7068 16.7785C22.2478 16.5274 23.9813 15.6122 23.5732 14.3765Z" fill="black"/>
<path d="M22.0142 14.6169C19.3034 15.176 19.1171 14.2582 19.1171 14.2582C21.9793 10.0112 23.1758 4.62022 22.1432 3.30081C19.3263 -0.298292 14.4502 1.40385 14.3688 1.44804L14.3426 1.45273C13.8071 1.34155 13.2077 1.27532 12.534 1.26433C11.3074 1.24423 10.377 1.58589 9.67098 2.1213C9.67098 2.1213 0.972409 -1.46217 1.37697 6.62819C1.46303 8.34936 3.84387 19.6513 6.68365 16.2376C7.72159 14.9893 8.72445 13.9338 8.72445 13.9338C9.22256 14.2647 9.81886 14.4335 10.444 14.3729L10.4925 14.3317C10.4775 14.4867 10.4844 14.6383 10.512 14.8177C9.78044 15.6351 9.99541 15.7786 8.53297 16.0796C7.05318 16.3846 7.9225 16.9275 8.49007 17.0694C9.17815 17.2415 10.77 17.4853 11.8456 15.9795L11.8027 16.1513C12.0894 16.3809 12.2907 17.6447 12.2569 18.7903C12.2232 19.936 12.2007 20.7225 12.4265 21.3369C12.6524 21.9512 12.8775 23.3335 14.8 22.9216C16.4064 22.5773 17.2389 21.6852 17.3547 20.1972C17.4369 19.1392 17.6228 19.2956 17.6346 18.3498L17.7838 17.902C17.9558 16.4679 17.8111 16.0053 18.8008 16.2204L19.0413 16.2416C19.7697 16.2747 20.7231 16.1244 21.2827 15.8643C22.4876 15.3052 23.2022 14.3716 22.0141 14.6169H22.0142Z" fill="#EF913C"/>
<path d="M10.1801 7.3979C9.93589 7.36389 9.71462 7.39536 9.60269 7.48008C9.53969 7.52777 9.52023 7.58301 9.51501 7.62106C9.50094 7.72178 9.57154 7.83312 9.61487 7.89057C9.73752 8.05316 9.91676 8.16493 10.0942 8.18955C10.1199 8.19311 10.1454 8.19484 10.1709 8.19484C10.4667 8.19484 10.7356 7.96451 10.7593 7.79448C10.789 7.58156 10.4799 7.43961 10.1801 7.3979Z" fill="white"/>
<path d="M18.2728 7.40465C18.2496 7.23775 17.9525 7.19017 17.6706 7.22935C17.3892 7.26858 17.1162 7.3956 17.139 7.56288C17.1574 7.69297 17.3922 7.91505 17.6702 7.915C17.6937 7.915 17.7174 7.91344 17.7413 7.9101C17.9269 7.88439 18.063 7.76653 18.1277 7.69857C18.2263 7.5951 18.2832 7.47967 18.2728 7.40465Z" fill="white"/>
<path d="M22.9164 14.5533C22.813 14.2408 22.4804 14.1401 21.9276 14.2543C20.2864 14.593 19.6987 14.3584 19.5056 14.2163C20.7814 12.2729 21.8308 9.92383 22.3969 7.73203C22.6651 6.69382 22.8133 5.72966 22.8253 4.94383C22.8387 4.08114 22.6918 3.44733 22.3888 3.06013C21.1672 1.49912 19.3743 0.661821 17.2039 0.63881C15.7119 0.62205 14.4513 1.00392 14.2069 1.11127C13.6922 0.98328 13.1312 0.904707 12.5204 0.894684C11.4003 0.876576 10.4322 1.14474 9.63053 1.6913C9.28234 1.56174 8.38247 1.25284 7.28207 1.0756C5.37951 0.769226 3.86771 1.00133 2.78882 1.76567C1.50147 2.67772 0.907165 4.30802 1.02233 6.61121C1.06108 7.38616 1.50255 9.76991 2.19936 12.0528C3.11653 15.0575 4.11345 16.7585 5.16249 17.1084C5.28526 17.1493 5.42688 17.178 5.58295 17.178C5.96563 17.178 6.43475 17.0055 6.92289 16.4187C7.73368 15.4433 8.49068 14.6259 8.76973 14.3289C9.1821 14.5503 9.63506 14.6739 10.0985 14.6863C10.0993 14.6984 10.1005 14.7105 10.1016 14.7226C10.0086 14.8329 9.93237 14.9295 9.86738 15.012C9.54635 15.4195 9.47953 15.5043 8.44612 15.7171C8.1522 15.7778 7.37137 15.9387 7.36 16.486C7.34755 17.0839 8.28283 17.335 8.38942 17.3616C8.76079 17.4546 9.11851 17.5004 9.4597 17.5004C10.2895 17.5004 11.0197 17.2277 11.6033 16.7001C11.5853 18.8317 11.6742 20.9322 11.9301 21.5722C12.1397 22.0961 12.6518 23.3765 14.2695 23.3764C14.5067 23.3764 14.7681 23.3488 15.0555 23.2872C16.7436 22.9253 17.4767 22.1791 17.7603 20.5342C17.9121 19.6551 18.1726 17.5557 18.295 16.4296C18.5535 16.5103 18.8863 16.5472 19.2461 16.5471C19.9965 16.5471 20.8623 16.3877 21.4053 16.1357C22.0152 15.8524 23.116 15.1572 22.9164 14.5533ZM18.8961 6.94393C18.8905 7.27638 18.8447 7.57817 18.7962 7.89322C18.7441 8.23203 18.6901 8.58232 18.6765 9.00757C18.6631 9.4214 18.7147 9.85167 18.7648 10.2677C18.8657 11.1081 18.9694 11.9733 18.5682 12.827C18.5058 12.7163 18.4456 12.5955 18.3904 12.4617C18.3406 12.3408 18.2323 12.1466 18.0824 11.8779C17.4991 10.8318 16.1332 8.38228 16.8324 7.38271C17.0407 7.08513 17.5692 6.7793 18.8961 6.94393ZM17.2878 1.31201C19.2324 1.35497 20.7706 2.08244 21.8598 3.47412C22.6951 4.54159 21.7753 9.39877 19.1125 13.589C19.0862 13.5556 19.0594 13.5219 19.0317 13.4873C19.0206 13.4735 19.0094 13.4594 18.998 13.4452C19.6861 12.3088 19.5515 11.1844 19.4318 10.1876C19.3826 9.77848 19.3361 9.39208 19.3479 9.02918C19.3601 8.6444 19.411 8.31454 19.4602 7.9955C19.5207 7.60232 19.5822 7.19555 19.5652 6.71597C19.5779 6.66569 19.583 6.60625 19.5764 6.53571C19.533 6.0758 19.008 4.69959 17.9379 3.4538C17.3525 2.77251 16.4989 2.01001 15.3333 1.49573C15.8347 1.39183 16.5203 1.29493 17.2878 1.31201ZM6.40635 15.9892C5.86857 16.6358 5.49716 16.5119 5.37504 16.4712C4.57923 16.2057 3.65592 14.5238 2.84185 11.8567C2.13744 9.54896 1.72577 7.22837 1.69322 6.57764C1.59034 4.51965 2.08921 3.08535 3.17602 2.3146C4.94472 1.06029 7.85267 1.81104 9.02113 2.19184C9.00432 2.20838 8.98686 2.2239 8.97021 2.24072C7.05282 4.17718 7.09831 7.48564 7.10299 7.68784C7.10283 7.76587 7.10935 7.87635 7.11835 8.02832C7.15134 8.58475 7.21272 9.62042 7.04873 10.7933C6.89627 11.8832 7.23223 12.95 7.97031 13.7201C8.04673 13.7998 8.12649 13.8746 8.20889 13.9451C7.88032 14.2969 7.16632 15.0749 6.40635 15.9892ZM8.45533 13.2552C7.86043 12.6346 7.59028 11.7712 7.71401 10.8863C7.88721 9.64731 7.82325 8.56826 7.78892 7.98855C7.78412 7.90745 7.77986 7.83636 7.77733 7.78026C8.05746 7.53193 9.35552 6.83637 10.2812 7.04848C10.7037 7.14527 10.961 7.43288 11.0681 7.92771C11.622 10.4893 11.1414 11.557 10.7553 12.4149C10.6757 12.5917 10.6005 12.7588 10.5363 12.9316L10.4865 13.0652C10.3605 13.4031 10.2433 13.7171 10.1707 14.0154C9.53832 14.0135 8.9231 13.7434 8.45533 13.2552ZM8.55239 16.7099C8.36776 16.6638 8.20167 16.5837 8.10423 16.5172C8.18561 16.4789 8.33047 16.4268 8.58165 16.3751C9.79738 16.1248 9.98508 15.9482 10.3951 15.4276C10.4891 15.3083 10.5957 15.173 10.7432 15.0082C10.7433 15.008 10.7433 15.008 10.7434 15.0079C10.9632 14.7619 11.0637 14.8036 11.246 14.8792C11.3938 14.9404 11.5377 15.1255 11.596 15.3293C11.6236 15.4256 11.6547 15.6083 11.5532 15.7504C10.6967 16.9496 9.4487 16.9342 8.55239 16.7099ZM14.9146 22.6304C13.4274 22.9491 12.9008 22.1902 12.5538 21.3228C12.3299 20.7627 12.2198 18.2372 12.2979 15.4483C12.2989 15.4112 12.2937 15.3753 12.2834 15.3416C12.2745 15.2766 12.2608 15.2108 12.2419 15.1446C12.1257 14.7388 11.8427 14.3993 11.5032 14.2586C11.3683 14.2027 11.1207 14.1001 10.8231 14.1762C10.8866 13.9148 10.9967 13.6197 11.1159 13.3L11.166 13.1655C11.2224 13.0139 11.293 12.8568 11.3678 12.6906C11.7719 11.7929 12.3253 10.5634 11.7247 7.78571C11.4997 6.74534 10.7484 6.23731 9.60957 6.35528C8.92677 6.42593 8.30217 6.70142 7.99063 6.85938C7.92364 6.89333 7.86237 6.92609 7.80514 6.95805C7.89207 5.90977 8.22064 3.95078 9.44956 2.71134C10.2233 1.931 11.2538 1.54563 12.5093 1.56638C14.9832 1.60691 16.5696 2.87647 17.4649 3.9344C18.2363 4.84607 18.6541 5.76437 18.8208 6.25963C17.567 6.13217 16.7143 6.37969 16.282 6.99766C15.3416 8.34191 16.7965 10.9511 17.4957 12.205C17.6239 12.4349 17.7346 12.6335 17.7694 12.7179C17.9971 13.2697 18.2919 13.6381 18.5072 13.9071C18.5731 13.9895 18.6371 14.0694 18.6858 14.1392C18.3061 14.2487 17.624 14.5016 17.6861 15.7659C17.636 16.4004 17.2795 19.3706 17.0984 20.42C16.8593 21.8064 16.3492 22.3229 14.9146 22.6304ZM21.1224 15.5264C20.7341 15.7066 20.0843 15.8418 19.467 15.8708C18.7852 15.9028 18.4381 15.7945 18.3565 15.7279C18.3181 14.94 18.6114 14.8576 18.9218 14.7705C18.9706 14.7568 19.0182 14.7434 19.0641 14.7274C19.0926 14.7506 19.1239 14.7737 19.1581 14.7963C19.7061 15.158 20.6836 15.197 22.0635 14.9122C22.0685 14.9111 22.0736 14.9101 22.0786 14.9091C21.8925 15.0831 21.574 15.3167 21.1224 15.5264Z" fill="white"/>
</svg>
