<svg width="28" height="24" viewBox="0 0 28 24" fill="none" xmlns="http://www.w3.org/2000/svg">
<path d="M22.848 7.77885C22.5681 7.68253 22.2782 7.5914 21.9796 7.50521C22.0287 7.30494 22.0737 7.10726 22.1138 6.91295C22.7711 3.72221 22.3413 1.15173 20.8737 0.305416C19.4665 -0.506085 17.1651 0.340035 14.8408 2.36281C14.6173 2.55732 14.3932 2.76325 14.1691 2.97908C14.0198 2.83628 13.8708 2.69829 13.7222 2.5663C11.2862 0.403415 8.84455 -0.508053 7.37842 0.340707C5.97254 1.15456 5.5562 3.57106 6.14789 6.59494C6.20503 6.88702 6.27182 7.18529 6.34734 7.48855C6.00178 7.58665 5.66817 7.69122 5.34897 7.80247C2.49309 8.79816 0.669189 10.3586 0.669189 11.9773C0.669189 13.649 2.62714 15.3258 5.60177 16.3425C5.83651 16.4227 6.08009 16.4986 6.33111 16.5706C6.24963 16.8986 6.17876 17.22 6.11927 17.5335C5.5551 20.5049 5.99568 22.8643 7.39781 23.673C8.84609 24.5082 11.2767 23.6498 13.6435 21.5809C13.8306 21.4174 14.0183 21.2439 14.2064 21.0621C14.4502 21.2969 14.6935 21.519 14.9356 21.7274C17.2282 23.7002 19.4924 24.4968 20.8932 23.6859C22.3401 22.8483 22.8103 20.3137 22.1998 17.23C22.1532 16.9945 22.0989 16.7539 22.038 16.509C22.2087 16.4586 22.3763 16.4065 22.5397 16.3523C25.6321 15.3277 27.6441 13.6713 27.6441 11.9773C27.6441 10.3528 25.7614 8.78179 22.848 7.77885ZM22.1773 15.2585C22.0298 15.3073 21.8784 15.3545 21.7242 15.4003C21.3828 14.3195 20.922 13.1703 20.3582 11.9829C20.8963 10.8238 21.3392 9.68927 21.671 8.61551C21.947 8.69536 22.2148 8.77958 22.4729 8.86845C24.9691 9.72778 26.4917 10.9983 26.4917 11.9773C26.4917 13.0201 24.8473 14.3738 22.1773 15.2585ZM21.0694 17.4538C21.3393 18.8174 21.3779 20.0502 21.199 21.014C21.0384 21.88 20.7153 22.4574 20.3158 22.6886C19.4657 23.1807 17.6478 22.541 15.6872 20.8539C15.4624 20.6605 15.236 20.454 15.0089 20.2354C15.769 19.4041 16.5286 18.4377 17.27 17.3645C18.5741 17.2487 19.8061 17.0596 20.9233 16.8013C20.9784 17.0233 21.0272 17.241 21.0694 17.4538ZM9.86554 22.6036C9.03498 22.8969 8.37348 22.9053 7.97361 22.6747C7.12274 22.184 6.76901 20.2896 7.25151 17.7484C7.30678 17.4574 7.37256 17.1585 7.44837 16.8529C8.55339 17.0973 9.77638 17.2731 11.0835 17.3791C11.8299 18.4293 12.6115 19.3946 13.3992 20.2399C13.2271 20.406 13.0557 20.5642 12.8852 20.7132C11.8386 21.628 10.7898 22.2771 9.86554 22.6036ZM5.97446 15.2521C4.65914 14.8025 3.57289 14.2182 2.82833 13.5806C2.15929 13.0077 1.8215 12.4388 1.8215 11.9773C1.8215 10.995 3.28591 9.74218 5.72829 8.89063C6.02463 8.78731 6.33486 8.68993 6.6568 8.59846C6.99434 9.69647 7.43714 10.8445 7.9715 12.0053C7.43023 13.1834 6.98114 14.3497 6.64028 15.4606C6.41077 15.3946 6.18841 15.3252 5.97446 15.2521ZM7.27879 6.37364C6.77184 3.78285 7.10852 1.82845 7.95575 1.33803C8.85819 0.815575 10.8537 1.56048 12.957 3.42802C13.0914 3.54739 13.2264 3.67232 13.3618 3.80158C12.578 4.64314 11.8036 5.60123 11.0638 6.64526C9.79515 6.76285 8.58076 6.95174 7.46422 7.20469C7.39402 6.92231 7.33184 6.64488 7.27879 6.37364ZM18.9145 9.24681C18.6476 8.78577 18.3736 8.33563 18.0943 7.89778C18.9549 8.00658 19.7795 8.15101 20.5539 8.32776C20.3214 9.07285 20.0317 9.8519 19.6906 10.6505C19.4459 10.186 19.1871 9.7176 18.9145 9.24681ZM14.1695 4.62513C14.701 5.20097 15.2333 5.84389 15.7569 6.54146C15.2293 6.51654 14.6952 6.50357 14.1566 6.50357C13.6232 6.50357 13.093 6.51625 12.5687 6.54074C13.0928 5.84966 13.6297 5.2076 14.1695 4.62513ZM9.39408 9.25478C9.12746 9.71712 8.87346 10.183 8.63262 10.6497C8.29704 9.85382 8.00996 9.07122 7.77545 8.31556C8.54508 8.14333 9.3658 8.0025 10.221 7.89577C9.93771 8.33765 9.66143 8.7912 9.39408 9.25478ZM10.2456 16.141C9.36206 16.0424 8.529 15.9088 7.75956 15.7414C7.99781 14.9722 8.29123 14.1729 8.63391 13.3599C8.87538 13.8263 9.13039 14.2923 9.39865 14.7557C9.6719 15.2277 9.95504 15.6901 10.2456 16.141ZM14.2014 19.4107C13.6552 18.8214 13.1104 18.1695 12.5784 17.4684C13.0949 17.4886 13.6215 17.499 14.1566 17.499C14.7065 17.499 15.25 17.4866 15.785 17.4628C15.2597 18.1766 14.7293 18.8294 14.2014 19.4107ZM19.7016 13.3185C20.0621 14.1403 20.366 14.9354 20.6074 15.6914C19.8252 15.8698 18.9808 16.0136 18.0911 16.1203C18.3711 15.6766 18.6475 15.2187 18.9191 14.7477C19.1939 14.2712 19.4549 13.794 19.7016 13.3185ZM17.921 14.172C17.4993 14.9032 17.0664 15.6011 16.6269 16.2599C15.8265 16.3172 14.9995 16.3466 14.1566 16.3466C13.3172 16.3466 12.5007 16.3206 11.7144 16.2695C11.2572 15.6021 10.8148 14.9021 10.3959 14.1783C9.97799 13.4566 9.59349 12.7287 9.245 12.0049C9.59339 11.2795 9.97699 10.5508 10.3925 9.83034L10.3924 9.83048C10.8089 9.1081 11.2474 8.41149 11.7003 7.74822C12.5026 7.68757 13.3252 7.65593 14.1566 7.65593C14.9917 7.65593 15.8155 7.68781 16.6175 7.74898C17.0635 8.40741 17.499 9.10176 17.9172 9.82424C18.3401 10.5548 18.7287 11.2787 19.08 11.9886C18.7297 12.7107 18.3421 13.4418 17.921 14.172ZM20.2981 1.30374C21.2014 1.82466 21.5527 3.9255 20.9852 6.68036C20.949 6.85615 20.9082 7.03519 20.8639 7.21664C19.7448 6.95842 18.5296 6.76626 17.2572 6.6469C16.516 5.59138 15.7479 4.6318 14.9769 3.80105C15.1842 3.60164 15.3912 3.4115 15.5973 3.23207C17.5888 1.49897 19.4501 0.814711 20.2981 1.30374ZM14.1566 9.56851C15.4869 9.56851 16.5654 10.6469 16.5654 11.9773C16.5654 13.3076 15.4869 14.386 14.1566 14.386C12.8263 14.386 11.7479 13.3076 11.7479 11.9773C11.7479 10.6469 12.8263 9.56851 14.1566 9.56851Z" fill="#EF913C"/>
</svg>
