<svg width="26" height="24" viewBox="0 0 26 24" fill="none" xmlns="http://www.w3.org/2000/svg">
<path d="M7.49535 21.5502C13.0379 22.3065 18.4814 23.0502 24.0328 23.8083C22.1413 20.6593 20.2989 17.5907 18.4412 14.497C14.8018 16.8425 11.1954 19.1656 7.49535 21.5502ZM25.5979 4.1201C25.1092 4.85404 24.6196 5.5871 24.1318 6.32105C22.4561 8.84215 20.7804 11.3633 19.1065 13.8853C19.0129 14.0262 18.8925 14.1376 19.0236 14.3534C20.6413 17.0244 22.2456 19.7033 23.8544 22.3796C24.1086 22.8023 24.3646 23.2232 24.6936 23.629C25.0182 17.1332 25.3437 10.6373 25.6692 4.1415C25.6452 4.13436 25.6211 4.12634 25.5979 4.1201ZM3.51705 12.4477C3.59285 12.5199 3.78102 12.5609 3.86931 12.5181C5.42103 11.7556 6.98257 11.0101 8.49951 10.1843C8.99446 9.91498 9.37525 9.43341 9.80153 9.04191C11.2132 7.74703 12.6232 6.44947 14.0322 5.1519C14.1187 5.07253 14.2204 4.99495 14.2721 4.89507C14.7786 3.90606 15.2754 2.91171 15.7908 1.88882C15.1764 1.65785 14.5949 1.43222 14.0055 1.22711C13.9261 1.19946 13.7995 1.25476 13.7129 1.30291C12.3485 2.06451 10.9591 2.78597 9.63833 3.61712C8.97751 4.0327 8.43887 4.64625 7.85385 5.17955C6.91033 6.04013 5.96859 6.90339 5.03934 7.77913C4.79232 8.01189 4.56758 8.27675 4.37585 8.55678C3.74 9.48246 3.12377 10.4215 2.479 11.3864C2.83928 11.7601 3.16746 12.1168 3.51794 12.4486L3.51705 12.4477ZM9.18708 11.1831C8.41568 14.4435 7.64785 17.6861 6.85504 21.0348C10.572 18.6394 14.2043 16.2993 17.8116 13.9753C14.9409 13.0461 12.0792 12.1195 9.18708 11.184V11.1831ZM24.6499 4.15131C21.509 4.67568 18.443 5.18847 15.3378 5.7066C16.3955 8.27943 17.4317 10.8005 18.4983 13.3939C20.561 10.2949 22.5827 7.25832 24.6508 4.15131H24.6499ZM9.3164 10.5161C12.1452 11.4346 14.9169 12.3344 17.7697 13.2601C16.7103 10.6793 15.6874 8.18847 14.6431 5.64596C12.864 7.27259 11.1125 8.87426 9.3164 10.5161ZM3.63387 14.349C2.6306 16.747 1.66211 19.063 0.675788 21.4209C2.57175 21.3647 4.40974 21.3103 6.31015 21.2542C5.41746 18.9515 4.54261 16.6944 3.63387 14.349ZM6.37615 19.615C6.39933 19.6106 6.42252 19.6043 6.4466 19.5999C7.12258 16.7872 7.80926 13.9932 8.5004 11.0699C6.95938 11.8707 5.4897 12.6341 3.97989 13.4197C4.7504 15.4227 5.57085 17.5354 6.37615 19.615ZM23.5129 3.6956C22.6131 3.45749 21.7132 3.21849 20.8134 2.98127C19.5194 2.6415 18.2245 2.30529 16.9314 1.96195C16.77 1.91914 16.6532 1.89061 16.5578 2.08591C16.1012 3.02229 15.6294 3.95155 15.1657 4.88436C15.1514 4.9129 15.1541 4.95036 15.1434 5.02259C17.9454 4.5981 20.7287 4.17628 23.5111 3.75446C23.512 3.73484 23.512 3.71522 23.5129 3.6956ZM18.2932 1.56599C20.7091 2.23484 23.1258 2.90279 25.6264 3.59483C25.2055 2.39625 24.8158 1.28508 24.4145 0.141795C22.3607 0.597503 20.3327 1.04697 18.3039 1.49643C18.3003 1.51962 18.2968 1.54281 18.2932 1.56599ZM6.99862 22.0907C6.08988 21.9863 5.15795 22.0826 4.23673 22.0978C3.47959 22.1112 2.72335 22.1397 1.96711 22.1629C1.88863 22.1656 1.81104 22.1807 1.73346 22.2646C7.9894 22.8433 14.2453 23.4212 20.5004 24C20.5049 23.9724 20.5084 23.9438 20.5129 23.9162C18.5072 23.6424 16.5025 23.3686 14.4968 23.0948C11.998 22.7533 9.50367 22.3796 6.99862 22.0907ZM0.798856 19.2628C1.60504 17.3927 2.40766 15.5199 3.21741 13.6516C3.29856 13.4643 3.29232 13.3368 3.13358 13.1861C2.79469 12.8642 2.48078 12.5163 2.11069 12.132C1.61039 14.6023 1.12258 17.0101 0.634766 19.4188C0.652602 19.4269 0.671329 19.4358 0.689165 19.4447C0.726621 19.385 0.772102 19.3279 0.799748 19.2637L0.798856 19.2628ZM16.6871 1.07194C18.0462 0.721463 19.4258 0.44679 20.7965 0.140904C20.8848 0.121284 20.9722 0.091855 21.0596 0.0668847C21.0551 0.0445898 21.0506 0.0222949 21.0462 0C19.1154 0.259513 17.1838 0.519917 15.155 0.792806C15.7079 1.03448 16.1342 1.21373 16.6871 1.07194Z" fill="#EF913C"/>
</svg>
