<svg width="256" height="192" viewBox="0 0 256 192" fill="none" xmlns="http://www.w3.org/2000/svg">
<g clip-path="url(#clip0_1084_4458)">
<path d="M220.28 110.514C211.374 110.56 203.633 112.705 197.152 115.876C194.773 111.166 192.395 106.97 191.976 103.892C191.509 100.302 190.95 98.11 191.509 93.82C192.069 89.53 194.587 83.421 194.54 82.955C194.494 82.489 193.98 80.297 188.851 80.251C183.722 80.204 179.292 81.23 178.779 82.582C178.266 83.934 177.287 87.012 176.634 90.182C175.748 94.846 166.376 111.492 161.014 120.212C159.288 116.809 157.796 113.824 157.469 111.446C157.003 107.856 156.443 105.664 157.003 101.374C157.563 97.084 160.081 90.976 160.034 90.509C159.987 90.043 159.474 87.851 154.345 87.805C149.215 87.758 144.785 88.784 144.273 90.136C143.76 91.489 143.2 94.659 142.128 97.737C141.055 100.815 128.605 128.607 125.341 135.787C124.022 138.693 122.639 141.57 121.191 144.414C121.191 144.414 121.144 144.554 121.004 144.787C120.55 145.679 120.084 146.565 119.606 147.445V147.491C118.906 148.751 118.16 149.916 117.787 149.916C117.507 149.916 116.994 146.559 117.88 141.989C119.745 132.337 124.175 117.322 124.129 116.809C124.129 116.529 124.968 113.918 121.238 112.565C117.6 111.213 116.295 113.451 115.968 113.451C115.642 113.451 115.408 114.244 115.408 114.244C115.408 114.244 119.466 97.364 107.668 97.364C100.301 97.364 90.1355 105.431 85.0995 112.705C79.3746 115.82 73.6546 118.945 67.9395 122.078C65.1895 123.617 62.3445 125.156 59.6865 126.601C59.4995 126.415 59.3135 126.181 59.1265 125.995C44.8575 110.747 18.4655 99.975 19.5845 79.505C20.0045 72.044 22.5685 52.459 70.2715 28.678C109.533 9.326 140.776 14.688 146.185 26.579C153.925 43.553 129.445 75.075 88.8765 79.644C73.3955 81.37 65.2815 75.401 63.2305 73.163C61.0855 70.831 60.7585 70.691 59.9655 71.158C58.6605 71.858 59.4995 73.956 59.9655 75.168C61.1785 78.338 66.1675 83.934 74.6075 86.686C82.0685 89.11 100.207 90.463 122.17 81.976C146.744 72.463 165.956 46.024 160.314 23.875C154.671 1.399 117.367 -6.015 82.0685 6.528C61.0855 13.99 38.3295 25.74 21.9625 41.035C2.51748 59.22 -0.56052 75.028 0.698479 81.65C5.22248 105.151 37.6305 120.446 50.5935 131.777C49.9405 132.15 49.3335 132.477 48.8215 132.757C42.3395 135.974 17.6255 148.89 11.4705 162.553C4.47648 178.034 12.5905 189.133 17.9525 190.624C34.5995 195.241 51.7125 186.941 60.8985 173.231C70.0845 159.522 68.9655 141.709 64.7225 133.549C64.6755 133.456 64.6295 133.362 64.5355 133.269C66.2145 132.29 67.9395 131.264 69.6185 130.285C72.7044 128.461 75.8294 126.704 78.9915 125.015C77.4055 129.352 76.2395 134.528 75.6805 141.989C74.9805 150.756 78.5705 162.133 83.2805 166.609C85.3795 168.569 87.8505 168.615 89.4365 168.615C94.9385 168.615 97.4105 164.045 100.161 158.636C103.518 152.015 106.549 144.321 106.549 144.321C106.549 144.321 102.772 165.118 113.031 165.118C116.761 165.118 120.538 160.268 122.217 157.797V157.843C122.217 157.843 122.31 157.703 122.497 157.377C122.87 156.771 123.103 156.397 123.103 156.397V156.305C124.595 153.693 127.953 147.771 132.942 137.932C139.377 125.249 145.579 109.395 145.579 109.395C145.579 109.395 146.139 113.265 148.05 119.7C149.17 123.477 151.5 127.627 153.366 131.637C151.874 133.736 150.941 134.901 150.941 134.901L150.988 134.948C149.775 136.533 148.47 138.258 147.024 139.938C141.941 145.999 135.88 152.948 135.04 154.952C134.06 157.33 134.294 159.056 136.16 160.455C137.512 161.481 139.936 161.62 142.408 161.481C146.978 161.154 150.195 160.035 151.78 159.336C154.252 158.45 157.143 157.097 159.847 155.092C164.837 151.408 167.867 146.139 167.588 139.192C167.448 135.368 166.189 131.544 164.65 127.953C165.117 127.301 165.536 126.648 166.003 125.995C173.883 114.477 179.992 101.84 179.992 101.84C179.992 101.84 180.552 105.71 182.463 112.146C183.396 115.41 185.308 118.954 186.986 122.404C179.572 128.42 175.002 135.414 173.37 139.984C170.433 148.471 172.717 152.294 177.054 153.18C179.012 153.6 181.81 152.667 183.862 151.781C186.473 150.942 189.551 149.497 192.489 147.351C197.479 143.668 202.281 138.538 202.001 131.591C201.861 128.42 201.022 125.295 199.856 122.264C206.151 119.654 214.265 118.208 224.616 119.42C246.813 122.031 251.196 135.88 250.356 141.71C249.517 147.538 244.854 150.709 243.316 151.688C241.776 152.668 241.264 152.994 241.404 153.693C241.59 154.719 242.336 154.673 243.642 154.486C245.461 154.16 255.3 149.776 255.719 139.051C256.419 125.342 243.362 110.374 220.28 110.514ZM49.0545 168.242C41.6865 176.262 31.4285 179.293 26.9985 176.729C22.2425 173.977 24.1075 162.133 33.1535 153.647C38.6555 148.471 45.7435 143.667 50.4535 140.73C51.5255 140.077 53.1115 139.145 55.0235 137.979C55.3495 137.792 55.5365 137.699 55.5365 137.699L56.6555 136.999C59.9655 149.123 56.7955 159.802 49.0545 168.242ZM102.679 131.777C100.114 138.026 94.7525 154.02 91.4885 153.134C88.6905 152.388 86.9645 140.264 90.9285 128.28C92.9335 122.264 97.1765 115.083 99.6485 112.286C103.658 107.809 108.088 106.316 109.16 108.136C110.513 110.514 104.264 127.86 102.679 131.777ZM146.931 152.947C145.858 153.507 144.833 153.88 144.366 153.6C144.04 153.413 144.833 152.667 144.833 152.667C144.833 152.667 150.382 146.699 152.573 143.994C153.833 142.409 155.324 140.544 156.91 138.445V139.051C156.91 146.186 150.008 150.989 146.93 152.947H146.931ZM181.064 145.16C180.271 144.6 180.411 142.735 183.069 136.906C184.095 134.621 186.519 130.798 190.67 127.114C191.136 128.606 191.463 130.052 191.416 131.404C191.369 140.404 184.935 143.761 181.064 145.16Z" fill="#EF913C"/>
</g>
<defs>
<clipPath id="clip0_1084_4458">
<rect width="256" height="192" fill="white"/>
</clipPath>
</defs>
</svg>
