<svg width="28" height="26" viewBox="0 0 28 26" fill="none" xmlns="http://www.w3.org/2000/svg">
<path d="M14.4356 1.82767L17.3223 6.9492C17.8217 7.83532 18.682 8.46032 19.6791 8.66151L25.442 9.82429C25.8238 9.90133 25.9748 10.3661 25.7112 10.6528L21.7323 14.9809C21.0439 15.7297 20.7154 16.741 20.8321 17.7514L21.5071 23.5916C21.5518 23.9785 21.1565 24.2657 20.8023 24.1036L15.4566 21.657C14.5317 21.2337 13.4683 21.2337 12.5434 21.657L7.19768 24.1036C6.84349 24.2657 6.44818 23.9785 6.4929 23.5916L7.16786 17.7514C7.28464 16.741 6.95606 15.7297 6.26765 14.9809L2.28883 10.6528C2.02522 10.366 2.17622 9.90133 2.55803 9.82429L8.32094 8.66151C9.31802 8.46032 10.1783 7.83532 10.6777 6.9492L13.5644 1.82768C13.7557 1.48835 14.2443 1.48835 14.4356 1.82767Z" stroke="#DAC403" stroke-width="3"/>
</svg>
