<svg width="773" height="112" viewBox="0 0 773 112" fill="none" xmlns="http://www.w3.org/2000/svg">
<path d="M653.546 73.8523C656.122 73.8523 658.066 74.5003 659.378 75.7963C660.69 77.0923 661.346 79.0043 661.346 81.5323C661.346 84.2043 660.69 86.2363 659.378 87.6283C658.066 89.0043 656.122 89.6923 653.546 89.6923H648.674V73.8523H653.546ZM653.546 89.3563C655.978 89.3563 657.818 88.6923 659.066 87.3643C660.33 86.0363 660.962 84.0923 660.962 81.5323C660.962 79.1163 660.33 77.2923 659.066 76.0603C657.818 74.8123 655.978 74.1883 653.546 74.1883H649.058V89.3563H653.546ZM667.601 77.4523C668.705 77.4523 669.673 77.7003 670.505 78.1963C671.353 78.6923 672.009 79.4123 672.473 80.3563C672.953 81.2843 673.193 82.3963 673.193 83.6923C673.193 84.9883 672.953 86.1083 672.473 87.0523C672.009 87.9803 671.353 88.6923 670.505 89.1883C669.673 89.6843 668.705 89.9323 667.601 89.9323C666.497 89.9323 665.521 89.6843 664.673 89.1883C663.841 88.6923 663.185 87.9803 662.705 87.0523C662.225 86.1083 661.985 84.9883 661.985 83.6923C661.985 82.3963 662.225 81.2843 662.705 80.3563C663.185 79.4123 663.841 78.6923 664.673 78.1963C665.521 77.7003 666.497 77.4523 667.601 77.4523ZM667.601 77.7883C666.577 77.7883 665.673 78.0283 664.889 78.5083C664.105 78.9723 663.489 79.6443 663.041 80.5243C662.593 81.4043 662.369 82.4603 662.369 83.6923C662.369 84.9083 662.593 85.9643 663.041 86.8603C663.489 87.7403 664.105 88.4203 664.889 88.9003C665.673 89.3643 666.577 89.5963 667.601 89.5963C668.625 89.5963 669.529 89.3643 670.313 88.9003C671.097 88.4203 671.705 87.7403 672.137 86.8603C672.585 85.9643 672.809 84.9083 672.809 83.6923C672.809 82.4603 672.585 81.4043 672.137 80.5243C671.705 79.6443 671.097 78.9723 670.313 78.5083C669.529 78.0283 668.625 77.7883 667.601 77.7883ZM677.583 73.6123C678.559 73.6123 679.391 73.8043 680.079 74.1883C680.783 74.5723 681.327 75.1003 681.711 75.7723C682.095 76.4443 682.287 77.2043 682.287 78.0523C682.287 78.9483 682.119 79.7003 681.783 80.3083C681.463 80.9163 680.951 81.4283 680.247 81.8443C679.559 82.2603 678.655 82.6283 677.535 82.9483V86.0923H677.151V82.7323C678.351 82.3643 679.295 81.9883 679.983 81.6043C680.687 81.2043 681.183 80.7323 681.471 80.1883C681.759 79.6283 681.903 78.9163 681.903 78.0523C681.903 77.2683 681.727 76.5723 681.375 75.9643C681.023 75.3403 680.527 74.8523 679.887 74.5003C679.247 74.1323 678.479 73.9483 677.583 73.9483C676.175 73.9483 675.095 74.2923 674.343 74.9803C673.607 75.6523 673.151 76.5963 672.975 77.8123L672.639 77.6683C672.783 76.8203 673.055 76.0923 673.455 75.4843C673.855 74.8763 674.399 74.4123 675.087 74.0923C675.775 73.7723 676.607 73.6123 677.583 73.6123ZM677.343 88.7563C677.503 88.7563 677.631 88.8043 677.727 88.9003C677.823 88.9963 677.871 89.1243 677.871 89.2843C677.871 89.4443 677.823 89.5723 677.727 89.6683C677.631 89.7643 677.503 89.8123 677.343 89.8123C677.183 89.8123 677.055 89.7643 676.959 89.6683C676.863 89.5723 676.815 89.4443 676.815 89.2843C676.815 89.1243 676.863 88.9963 676.959 88.9003C677.055 88.8043 677.183 88.7563 677.343 88.7563Z" fill="#EF913C"/>
<path d="M592.495 83.6985C594.975 83.6985 596.871 84.3865 598.183 85.7625C599.511 87.1385 600.175 89.0905 600.175 91.6185C600.175 94.1465 599.511 96.0985 598.183 97.4745C596.871 98.8505 594.975 99.5385 592.495 99.5385H585.775V83.6985H592.495ZM592.087 96.4185C593.431 96.4185 594.407 96.0185 595.015 95.2185C595.639 94.4025 595.951 93.2025 595.951 91.6185C595.951 90.0345 595.639 88.8425 595.015 88.0425C594.407 87.2265 593.431 86.8185 592.087 86.8185H589.903V96.4185H592.087ZM606.506 87.2985C607.77 87.2985 608.874 87.5465 609.818 88.0425C610.778 88.5225 611.522 89.2345 612.05 90.1785C612.594 91.1065 612.866 92.2265 612.866 93.5385C612.866 94.8505 612.594 95.9785 612.05 96.9225C611.522 97.8505 610.778 98.5625 609.818 99.0585C608.874 99.5385 607.77 99.7785 606.506 99.7785C605.274 99.7785 604.178 99.5385 603.218 99.0585C602.258 98.5625 601.506 97.8505 600.962 96.9225C600.434 95.9785 600.17 94.8505 600.17 93.5385C600.17 92.2265 600.434 91.1065 600.962 90.1785C601.506 89.2345 602.258 88.5225 603.218 88.0425C604.178 87.5465 605.274 87.2985 606.506 87.2985ZM606.506 90.2025C606.042 90.2025 605.642 90.3145 605.306 90.5385C604.97 90.7625 604.714 91.1225 604.538 91.6185C604.362 92.1145 604.274 92.7545 604.274 93.5385C604.274 94.3225 604.362 94.9625 604.538 95.4585C604.714 95.9385 604.97 96.2985 605.306 96.5385C605.642 96.7625 606.042 96.8745 606.506 96.8745C606.986 96.8745 607.394 96.7625 607.73 96.5385C608.066 96.2985 608.322 95.9385 608.498 95.4585C608.674 94.9625 608.762 94.3225 608.762 93.5385C608.762 92.7545 608.674 92.1145 608.498 91.6185C608.322 91.1225 608.066 90.7625 607.73 90.5385C607.394 90.3145 606.986 90.2025 606.506 90.2025ZM617.763 83.4585C618.947 83.4585 620.003 83.6265 620.931 83.9625C621.859 84.2825 622.587 84.7785 623.115 85.4505C623.659 86.1065 623.931 86.9305 623.931 87.9225C623.931 88.9145 623.723 89.7225 623.307 90.3465C622.907 90.9545 622.355 91.4185 621.651 91.7385C620.963 92.0425 620.203 92.2425 619.371 92.3385L619.131 94.4025H615.531L615.555 90.7545C616.563 90.6585 617.355 90.5145 617.931 90.3225C618.523 90.1145 618.939 89.8585 619.179 89.5545C619.419 89.2505 619.539 88.8905 619.539 88.4745C619.539 88.1065 619.459 87.7945 619.299 87.5385C619.155 87.2825 618.931 87.0905 618.627 86.9625C618.339 86.8345 617.955 86.7705 617.475 86.7705C616.787 86.7705 616.243 86.9785 615.843 87.3945C615.443 87.7945 615.187 88.3945 615.075 89.1945L611.139 87.8265C611.347 86.9945 611.707 86.2505 612.219 85.5945C612.747 84.9225 613.459 84.4025 614.355 84.0345C615.267 83.6505 616.403 83.4585 617.763 83.4585ZM617.379 95.7225C618.099 95.7225 618.659 95.8985 619.059 96.2505C619.475 96.6025 619.683 97.0985 619.683 97.7385C619.683 98.3625 619.475 98.8505 619.059 99.2025C618.659 99.5545 618.099 99.7305 617.379 99.7305C616.675 99.7305 616.115 99.5545 615.699 99.2025C615.299 98.8505 615.099 98.3625 615.099 97.7385C615.099 97.0985 615.299 96.6025 615.699 96.2505C616.115 95.8985 616.675 95.7225 617.379 95.7225Z" fill="white"/>
<path d="M407.266 52.7693L402.034 36.9293H402.442L407.53 52.3853L412.138 36.9293H412.642L417.25 52.3853L422.338 36.9293H422.746L417.514 52.7693H417.01L413.386 40.7213L412.402 37.4573H412.378L411.418 40.7213L407.77 52.7693H407.266ZM427.33 53.0093C426.274 53.0093 425.322 52.7613 424.474 52.2653C423.642 51.7693 422.978 51.0573 422.482 50.1293C422.002 49.1853 421.762 48.0653 421.762 46.7693C421.762 45.4573 422.002 44.3373 422.482 43.4093C422.962 42.4813 423.602 41.7693 424.402 41.2733C425.218 40.7773 426.13 40.5293 427.138 40.5293C428.194 40.5293 429.098 40.7693 429.85 41.2493C430.602 41.7293 431.178 42.4173 431.578 43.3133C431.994 44.1933 432.202 45.2493 432.202 46.4813C432.202 46.4973 432.202 46.5213 432.202 46.5533C432.202 46.5853 432.202 46.6173 432.202 46.6493H421.954V46.2893H432.034L431.866 46.4333C431.85 44.7853 431.434 43.4493 430.618 42.4253C429.818 41.3853 428.658 40.8653 427.138 40.8653C426.21 40.8653 425.362 41.1053 424.594 41.5853C423.842 42.0493 423.242 42.7213 422.794 43.6013C422.362 44.4813 422.146 45.5373 422.146 46.7693C422.146 48.0013 422.37 49.0573 422.818 49.9373C423.266 50.8173 423.882 51.4973 424.666 51.9773C425.45 52.4413 426.338 52.6733 427.33 52.6733C428.306 52.6733 429.194 52.4333 429.994 51.9533C430.794 51.4733 431.394 50.8173 431.794 49.9853L432.106 50.1533C431.834 50.7453 431.458 51.2573 430.978 51.6893C430.498 52.1053 429.946 52.4333 429.322 52.6733C428.698 52.8973 428.034 53.0093 427.33 53.0093Z" fill="#EF913C"/>
<path d="M353.892 62.6154L349.332 46.7754H353.724L356.412 59.2794L359.244 46.7754H362.988L365.892 59.2554L368.532 46.7754H372.78L368.196 62.6154H363.708L361.836 54.9354L361.116 51.0714H361.068L360.372 54.9354L358.524 62.6154H353.892ZM377.133 62.8554C375.805 62.8554 374.653 62.6074 373.677 62.1114C372.717 61.6154 371.973 60.9034 371.445 59.9754C370.917 59.0474 370.653 57.9274 370.653 56.6154C370.653 55.3034 370.917 54.1834 371.445 53.2554C371.973 52.3274 372.709 51.6154 373.653 51.1194C374.613 50.6234 375.709 50.3754 376.941 50.3754C378.205 50.3754 379.277 50.6234 380.157 51.1194C381.053 51.5994 381.733 52.2714 382.197 53.1354C382.661 53.9834 382.893 54.9594 382.893 56.0634C382.893 56.3514 382.885 56.6394 382.869 56.9274C382.853 57.2154 382.829 57.4554 382.797 57.6474H373.293V55.4634H380.997L379.053 56.2074C379.053 55.2474 378.877 54.5114 378.525 53.9994C378.189 53.4874 377.661 53.2314 376.941 53.2314C376.429 53.2314 375.989 53.3514 375.621 53.5914C375.269 53.8314 374.997 54.2074 374.805 54.7194C374.629 55.2314 374.541 55.8874 374.541 56.6874C374.541 57.4714 374.645 58.1114 374.853 58.6074C375.061 59.0874 375.357 59.4394 375.741 59.6634C376.125 59.8714 376.589 59.9754 377.133 59.9754C377.741 59.9754 378.221 59.8554 378.573 59.6154C378.941 59.3754 379.213 59.0394 379.389 58.6074L382.653 59.6874C382.429 60.3754 382.037 60.9594 381.477 61.4394C380.933 61.9034 380.277 62.2554 379.509 62.4954C378.757 62.7354 377.965 62.8554 377.133 62.8554Z" fill="white"/>
<path d="M150.892 22L145.66 6.16H146.068L151.156 21.616L155.764 6.16H156.268L160.876 21.616L165.964 6.16H166.372L161.14 22H160.636L157.012 9.952L156.028 6.688H156.004L155.044 9.952L151.396 22H150.892ZM167.048 22V4.48H167.432V13.168C167.704 12.176 168.288 11.36 169.184 10.72C170.08 10.064 171.16 9.736 172.424 9.736C173.352 9.736 174.144 9.912 174.8 10.264C175.472 10.6 175.984 11.088 176.336 11.728C176.704 12.368 176.888 13.152 176.888 14.08V21.976H176.504V14.128C176.504 12.848 176.128 11.856 175.376 11.152C174.64 10.432 173.632 10.072 172.352 10.072C171.424 10.072 170.584 10.288 169.832 10.72C169.096 11.152 168.512 11.728 168.08 12.448C167.648 13.152 167.432 13.92 167.432 14.752V22H167.048ZM186.637 13.936C186.637 12.752 186.309 11.816 185.653 11.128C184.997 10.44 184.053 10.096 182.821 10.096C181.813 10.096 180.933 10.32 180.181 10.768C179.445 11.2 178.893 11.92 178.525 12.928L178.213 12.688C178.581 11.696 179.157 10.96 179.941 10.48C180.741 10 181.701 9.76 182.821 9.76C183.717 9.76 184.477 9.928 185.101 10.264C185.725 10.584 186.197 11.056 186.517 11.68C186.853 12.304 187.021 13.056 187.021 13.936V20.128C187.021 21.28 187.493 21.856 188.437 21.856C188.789 21.856 189.061 21.792 189.253 21.664L189.229 22C189.005 22.128 188.717 22.192 188.365 22.192C188.125 22.192 187.869 22.136 187.597 22.024C187.325 21.912 187.093 21.704 186.901 21.4C186.725 21.08 186.637 20.608 186.637 19.984V18.88L186.805 18.736C186.693 19.52 186.381 20.176 185.869 20.704C185.373 21.216 184.765 21.6 184.045 21.856C183.341 22.112 182.621 22.24 181.885 22.24C181.085 22.24 180.397 22.128 179.821 21.904C179.245 21.664 178.805 21.328 178.501 20.896C178.197 20.464 178.045 19.936 178.045 19.312C178.045 18.416 178.341 17.712 178.933 17.2C179.541 16.688 180.397 16.328 181.501 16.12L186.709 15.112V15.448L181.765 16.408C180.645 16.616 179.805 16.96 179.245 17.44C178.701 17.904 178.429 18.512 178.429 19.264C178.429 20.112 178.725 20.768 179.317 21.232C179.925 21.68 180.797 21.904 181.933 21.904C182.413 21.904 182.917 21.832 183.445 21.688C183.989 21.544 184.501 21.32 184.981 21.016C185.477 20.696 185.877 20.296 186.181 19.816C186.485 19.32 186.637 18.728 186.637 18.04V13.936ZM190.161 6.76V18.976C190.161 19.936 190.361 20.664 190.761 21.16C191.161 21.656 191.793 21.904 192.657 21.904C193.073 21.904 193.457 21.832 193.809 21.688C194.161 21.544 194.481 21.32 194.769 21.016L194.961 21.328C194.721 21.584 194.393 21.8 193.977 21.976C193.577 22.152 193.137 22.24 192.657 22.24C192.017 22.24 191.481 22.12 191.049 21.88C190.617 21.624 190.297 21.256 190.089 20.776C189.881 20.28 189.777 19.68 189.777 18.976V6.88L190.161 6.76ZM194.793 10V10.336H187.377V10H194.793Z" fill="#EF913C"/>
<path d="M84.5406 34.3077L79.9806 18.4677H84.3726L87.0606 30.9717L89.8926 18.4677H93.6366L96.5406 30.9477L99.1806 18.4677H103.429L98.8446 34.3077H94.3566L92.4846 26.6277L91.7646 22.7637H91.7166L91.0206 26.6277L89.1726 34.3077H84.5406ZM103.214 34.3077V17.2197H107.294V24.4917C107.646 23.6917 108.15 23.0917 108.806 22.6917C109.462 22.2757 110.222 22.0677 111.086 22.0677C111.918 22.0677 112.638 22.2277 113.246 22.5477C113.87 22.8677 114.358 23.3397 114.71 23.9637C115.062 24.5877 115.238 25.3717 115.238 26.3157V34.3077H111.158V27.4437C111.158 26.5797 110.998 25.9877 110.678 25.6677C110.374 25.3317 109.966 25.1637 109.454 25.1637C109.07 25.1637 108.71 25.2597 108.374 25.4517C108.038 25.6437 107.774 25.9477 107.582 26.3637C107.39 26.7797 107.294 27.3237 107.294 27.9957V34.3077H103.214ZM122.873 26.6997C122.873 26.1397 122.713 25.6997 122.393 25.3797C122.089 25.0437 121.673 24.8757 121.145 24.8757C120.617 24.8757 120.161 25.0117 119.777 25.2837C119.409 25.5397 119.153 26.0037 119.009 26.6757L115.553 25.8597C115.777 24.7077 116.369 23.7877 117.329 23.0997C118.289 22.4117 119.641 22.0677 121.385 22.0677C122.553 22.0677 123.545 22.2437 124.361 22.5957C125.193 22.9317 125.825 23.4437 126.257 24.1317C126.705 24.8037 126.929 25.6357 126.929 26.6277V31.0197C126.929 31.6437 127.209 31.9557 127.769 31.9557C128.057 31.9557 128.289 31.9237 128.465 31.8597L128.225 34.1877C127.745 34.4117 127.161 34.5237 126.473 34.5237C125.849 34.5237 125.297 34.4277 124.817 34.2357C124.337 34.0277 123.961 33.7237 123.689 33.3237C123.417 32.9077 123.281 32.3877 123.281 31.7637V31.6197L123.737 31.4517C123.737 32.1397 123.529 32.7157 123.113 33.1797C122.713 33.6437 122.185 33.9877 121.529 34.2117C120.889 34.4357 120.217 34.5477 119.513 34.5477C118.697 34.5477 117.985 34.4197 117.377 34.1637C116.769 33.9077 116.297 33.5397 115.961 33.0597C115.641 32.5637 115.481 31.9557 115.481 31.2357C115.481 30.3717 115.737 29.6597 116.249 29.0997C116.777 28.5237 117.601 28.1237 118.721 27.8997L123.257 26.9637L123.233 29.1237L120.929 29.6037C120.449 29.6997 120.089 29.8437 119.849 30.0357C119.625 30.2117 119.513 30.4837 119.513 30.8517C119.513 31.2037 119.641 31.4677 119.897 31.6437C120.153 31.8197 120.457 31.9077 120.809 31.9077C121.081 31.9077 121.337 31.8677 121.577 31.7877C121.833 31.7077 122.057 31.5877 122.249 31.4277C122.441 31.2517 122.593 31.0357 122.705 30.7797C122.817 30.5237 122.873 30.2197 122.873 29.8677V26.6997ZM132.703 18.4917V30.0357C132.703 30.6117 132.839 31.0277 133.111 31.2837C133.399 31.5237 133.791 31.6437 134.287 31.6437C134.671 31.6437 134.999 31.6037 135.271 31.5237C135.559 31.4277 135.815 31.2917 136.039 31.1157L136.471 33.6357C136.071 33.9237 135.567 34.1477 134.959 34.3077C134.351 34.4677 133.727 34.5477 133.087 34.5477C132.175 34.5477 131.383 34.4197 130.711 34.1637C130.055 33.9077 129.543 33.4997 129.175 32.9397C128.823 32.3797 128.639 31.6357 128.623 30.7077V19.6197L132.703 18.4917ZM136.279 22.3077V25.2117H126.559V22.3077H136.279Z" fill="white"/>
</svg>
