<svg width="633" height="101" viewBox="0 0 633 101" fill="none" xmlns="http://www.w3.org/2000/svg">
<path d="M533.145 67.2039C535.721 67.2039 537.665 67.8519 538.977 69.1479C540.289 70.4439 540.945 72.3559 540.945 74.8839C540.945 77.5559 540.289 79.5879 538.977 80.9799C537.665 82.3559 535.721 83.0439 533.145 83.0439H528.273V67.2039H533.145ZM533.145 82.7079C535.577 82.7079 537.417 82.0439 538.665 80.7159C539.929 79.3879 540.561 77.4439 540.561 74.8839C540.561 72.4679 539.929 70.6439 538.665 69.4119C537.417 68.1639 535.577 67.5399 533.145 67.5399H528.657V82.7079H533.145ZM547.2 70.8039C548.304 70.8039 549.272 71.0519 550.104 71.5479C550.952 72.0439 551.608 72.7639 552.072 73.7079C552.552 74.6359 552.792 75.7479 552.792 77.0439C552.792 78.3399 552.552 79.4599 552.072 80.4039C551.608 81.3319 550.952 82.0439 550.104 82.5399C549.272 83.0359 548.304 83.2839 547.2 83.2839C546.096 83.2839 545.12 83.0359 544.272 82.5399C543.44 82.0439 542.784 81.3319 542.304 80.4039C541.824 79.4599 541.584 78.3399 541.584 77.0439C541.584 75.7479 541.824 74.6359 542.304 73.7079C542.784 72.7639 543.44 72.0439 544.272 71.5479C545.12 71.0519 546.096 70.8039 547.2 70.8039ZM547.2 71.1399C546.176 71.1399 545.272 71.3799 544.488 71.8599C543.704 72.3239 543.088 72.9959 542.64 73.8759C542.192 74.7559 541.968 75.8119 541.968 77.0439C541.968 78.2599 542.192 79.3159 542.64 80.2119C543.088 81.0919 543.704 81.7719 544.488 82.2519C545.272 82.7159 546.176 82.9479 547.2 82.9479C548.224 82.9479 549.128 82.7159 549.912 82.2519C550.696 81.7719 551.304 81.0919 551.736 80.2119C552.184 79.3159 552.408 78.2599 552.408 77.0439C552.408 75.8119 552.184 74.7559 551.736 73.8759C551.304 72.9959 550.696 72.3239 549.912 71.8599C549.128 71.3799 548.224 71.1399 547.2 71.1399ZM557.182 66.9639C558.158 66.9639 558.99 67.1559 559.678 67.5399C560.382 67.9239 560.926 68.4519 561.31 69.1239C561.694 69.7959 561.886 70.5559 561.886 71.4039C561.886 72.2999 561.718 73.0519 561.382 73.6599C561.062 74.2679 560.55 74.7799 559.846 75.1959C559.158 75.6119 558.254 75.9799 557.134 76.2999V79.4439H556.75V76.0839C557.95 75.7159 558.894 75.3399 559.582 74.9559C560.286 74.5559 560.782 74.0839 561.07 73.5399C561.358 72.9799 561.502 72.2679 561.502 71.4039C561.502 70.6199 561.326 69.9239 560.974 69.3159C560.622 68.6919 560.126 68.2039 559.486 67.8519C558.846 67.4839 558.078 67.2999 557.182 67.2999C555.774 67.2999 554.694 67.6439 553.942 68.3319C553.206 69.0039 552.75 69.9479 552.574 71.1639L552.238 71.0199C552.382 70.1719 552.654 69.4439 553.054 68.8359C553.454 68.2279 553.998 67.7639 554.686 67.4439C555.374 67.1239 556.206 66.9639 557.182 66.9639ZM556.942 82.1079C557.102 82.1079 557.23 82.1559 557.326 82.2519C557.422 82.3479 557.47 82.4759 557.47 82.6359C557.47 82.7959 557.422 82.9239 557.326 83.0199C557.23 83.1159 557.102 83.1639 556.942 83.1639C556.782 83.1639 556.654 83.1159 556.558 83.0199C556.462 82.9239 556.414 82.7959 556.414 82.6359C556.414 82.4759 556.462 82.3479 556.558 82.2519C556.654 82.1559 556.782 82.1079 556.942 82.1079Z" fill="#EF913C"/>
<path d="M483.015 76.0831C485.495 76.0831 487.391 76.7711 488.703 78.1471C490.031 79.5231 490.695 81.4751 490.695 84.0031C490.695 86.5311 490.031 88.4831 488.703 89.8591C487.391 91.2351 485.495 91.9231 483.015 91.9231H476.295V76.0831H483.015ZM482.607 88.8031C483.951 88.8031 484.927 88.4031 485.535 87.6031C486.159 86.7871 486.471 85.5871 486.471 84.0031C486.471 82.4191 486.159 81.2271 485.535 80.4271C484.927 79.6111 483.951 79.2031 482.607 79.2031H480.423V88.8031H482.607ZM497.026 79.6831C498.29 79.6831 499.394 79.9311 500.338 80.4271C501.298 80.9071 502.042 81.6191 502.57 82.5631C503.114 83.4911 503.386 84.6111 503.386 85.9231C503.386 87.2351 503.114 88.3631 502.57 89.3071C502.042 90.2351 501.298 90.9471 500.338 91.4431C499.394 91.9231 498.29 92.1631 497.026 92.1631C495.794 92.1631 494.698 91.9231 493.738 91.4431C492.778 90.9471 492.026 90.2351 491.482 89.3071C490.954 88.3631 490.69 87.2351 490.69 85.9231C490.69 84.6111 490.954 83.4911 491.482 82.5631C492.026 81.6191 492.778 80.9071 493.738 80.4271C494.698 79.9311 495.794 79.6831 497.026 79.6831ZM497.026 82.5871C496.562 82.5871 496.162 82.6991 495.826 82.9231C495.49 83.1471 495.234 83.5071 495.058 84.0031C494.882 84.4991 494.794 85.1391 494.794 85.9231C494.794 86.7071 494.882 87.3471 495.058 87.8431C495.234 88.3231 495.49 88.6831 495.826 88.9231C496.162 89.1471 496.562 89.2591 497.026 89.2591C497.506 89.2591 497.914 89.1471 498.25 88.9231C498.586 88.6831 498.842 88.3231 499.018 87.8431C499.194 87.3471 499.282 86.7071 499.282 85.9231C499.282 85.1391 499.194 84.4991 499.018 84.0031C498.842 83.5071 498.586 83.1471 498.25 82.9231C497.914 82.6991 497.506 82.5871 497.026 82.5871ZM508.283 75.8431C509.467 75.8431 510.523 76.0111 511.451 76.3471C512.379 76.6671 513.107 77.1631 513.635 77.8351C514.179 78.4911 514.451 79.3151 514.451 80.3071C514.451 81.2991 514.243 82.1071 513.827 82.7311C513.427 83.3391 512.875 83.8031 512.171 84.1231C511.483 84.4271 510.723 84.6271 509.891 84.7231L509.651 86.7871H506.051L506.075 83.1391C507.083 83.0431 507.875 82.8991 508.451 82.7071C509.043 82.4991 509.459 82.2431 509.699 81.9391C509.939 81.6351 510.059 81.2751 510.059 80.8591C510.059 80.4911 509.979 80.1791 509.819 79.9231C509.675 79.6671 509.451 79.4751 509.147 79.3471C508.859 79.2191 508.475 79.1551 507.995 79.1551C507.307 79.1551 506.763 79.3631 506.363 79.7791C505.963 80.1791 505.707 80.7791 505.595 81.5791L501.659 80.2111C501.867 79.3791 502.227 78.6351 502.739 77.9791C503.267 77.3071 503.979 76.7871 504.875 76.4191C505.787 76.0351 506.923 75.8431 508.283 75.8431ZM507.899 88.1071C508.619 88.1071 509.179 88.2831 509.579 88.6351C509.995 88.9871 510.203 89.4831 510.203 90.1231C510.203 90.7471 509.995 91.2351 509.579 91.5871C509.179 91.9391 508.619 92.1151 507.899 92.1151C507.195 92.1151 506.635 91.9391 506.219 91.5871C505.819 91.2351 505.619 90.7471 505.619 90.1231C505.619 89.4831 505.819 88.9871 506.219 88.6351C506.635 88.2831 507.195 88.1071 507.899 88.1071Z" fill="white"/>
<path d="M331.666 49.7473L326.434 33.9073H326.842L331.93 49.3633L336.538 33.9073H337.042L341.65 49.3633L346.738 33.9073H347.146L341.914 49.7473H341.41L337.786 37.6993L336.802 34.4353H336.778L335.818 37.6993L332.17 49.7473H331.666ZM351.73 49.9873C350.674 49.9873 349.722 49.7393 348.874 49.2433C348.042 48.7473 347.378 48.0353 346.882 47.1073C346.402 46.1633 346.162 45.0433 346.162 43.7473C346.162 42.4353 346.402 41.3153 346.882 40.3873C347.362 39.4593 348.002 38.7473 348.802 38.2513C349.618 37.7553 350.53 37.5073 351.538 37.5073C352.594 37.5073 353.498 37.7473 354.25 38.2273C355.002 38.7073 355.578 39.3953 355.978 40.2913C356.394 41.1713 356.602 42.2273 356.602 43.4593C356.602 43.4753 356.602 43.4993 356.602 43.5313C356.602 43.5633 356.602 43.5953 356.602 43.6273H346.354V43.2673H356.434L356.266 43.4113C356.25 41.7633 355.834 40.4273 355.018 39.4033C354.218 38.3633 353.058 37.8433 351.538 37.8433C350.61 37.8433 349.762 38.0833 348.994 38.5633C348.242 39.0273 347.642 39.6993 347.194 40.5793C346.762 41.4593 346.546 42.5153 346.546 43.7473C346.546 44.9793 346.77 46.0353 347.218 46.9153C347.666 47.7953 348.282 48.4753 349.066 48.9553C349.85 49.4193 350.738 49.6513 351.73 49.6513C352.706 49.6513 353.594 49.4113 354.394 48.9313C355.194 48.4513 355.794 47.7953 356.194 46.9633L356.506 47.1313C356.234 47.7233 355.858 48.2353 355.378 48.6673C354.898 49.0833 354.346 49.4113 353.722 49.6513C353.098 49.8753 352.434 49.9873 351.73 49.9873Z" fill="#EF913C"/>
<path d="M287.532 58.6263L282.972 42.7863H287.364L290.052 55.2903L292.884 42.7863H296.628L299.532 55.2663L302.172 42.7863H306.42L301.836 58.6263H297.348L295.476 50.9463L294.756 47.0823H294.708L294.012 50.9463L292.164 58.6263H287.532ZM310.773 58.8663C309.445 58.8663 308.293 58.6183 307.317 58.1223C306.357 57.6263 305.613 56.9143 305.085 55.9863C304.557 55.0583 304.293 53.9383 304.293 52.6263C304.293 51.3143 304.557 50.1943 305.085 49.2663C305.613 48.3383 306.349 47.6263 307.293 47.1303C308.253 46.6343 309.349 46.3863 310.581 46.3863C311.845 46.3863 312.917 46.6343 313.797 47.1303C314.693 47.6103 315.373 48.2823 315.837 49.1463C316.301 49.9943 316.533 50.9703 316.533 52.0743C316.533 52.3623 316.525 52.6503 316.509 52.9383C316.493 53.2263 316.469 53.4663 316.437 53.6583H306.933V51.4743H314.637L312.693 52.2183C312.693 51.2583 312.517 50.5223 312.165 50.0103C311.829 49.4983 311.301 49.2423 310.581 49.2423C310.069 49.2423 309.629 49.3623 309.261 49.6023C308.909 49.8423 308.637 50.2183 308.445 50.7303C308.269 51.2423 308.181 51.8983 308.181 52.6983C308.181 53.4823 308.285 54.1223 308.493 54.6183C308.701 55.0983 308.997 55.4503 309.381 55.6743C309.765 55.8823 310.229 55.9863 310.773 55.9863C311.381 55.9863 311.861 55.8663 312.213 55.6263C312.581 55.3863 312.853 55.0503 313.029 54.6183L316.293 55.6983C316.069 56.3863 315.677 56.9703 315.117 57.4503C314.573 57.9143 313.917 58.2663 313.149 58.5063C312.397 58.7463 311.605 58.8663 310.773 58.8663Z" fill="white"/>
<path d="M120.092 22L114.86 6.16H115.268L120.356 21.616L124.964 6.16H125.468L130.076 21.616L135.164 6.16H135.572L130.34 22H129.836L126.212 9.952L125.228 6.688H125.204L124.244 9.952L120.596 22H120.092ZM136.248 22V4.48H136.632V13.168C136.904 12.176 137.488 11.36 138.384 10.72C139.28 10.064 140.36 9.736 141.624 9.736C142.552 9.736 143.344 9.912 144 10.264C144.672 10.6 145.184 11.088 145.536 11.728C145.904 12.368 146.088 13.152 146.088 14.08V21.976H145.704V14.128C145.704 12.848 145.328 11.856 144.576 11.152C143.84 10.432 142.832 10.072 141.552 10.072C140.624 10.072 139.784 10.288 139.032 10.72C138.296 11.152 137.712 11.728 137.28 12.448C136.848 13.152 136.632 13.92 136.632 14.752V22H136.248ZM155.837 13.936C155.837 12.752 155.509 11.816 154.853 11.128C154.197 10.44 153.253 10.096 152.021 10.096C151.013 10.096 150.133 10.32 149.381 10.768C148.645 11.2 148.093 11.92 147.725 12.928L147.413 12.688C147.781 11.696 148.357 10.96 149.141 10.48C149.941 10 150.901 9.76 152.021 9.76C152.917 9.76 153.677 9.928 154.301 10.264C154.925 10.584 155.397 11.056 155.717 11.68C156.053 12.304 156.221 13.056 156.221 13.936V20.128C156.221 21.28 156.693 21.856 157.637 21.856C157.989 21.856 158.261 21.792 158.453 21.664L158.429 22C158.205 22.128 157.917 22.192 157.565 22.192C157.325 22.192 157.069 22.136 156.797 22.024C156.525 21.912 156.293 21.704 156.101 21.4C155.925 21.08 155.837 20.608 155.837 19.984V18.88L156.005 18.736C155.893 19.52 155.581 20.176 155.069 20.704C154.573 21.216 153.965 21.6 153.245 21.856C152.541 22.112 151.821 22.24 151.085 22.24C150.285 22.24 149.597 22.128 149.021 21.904C148.445 21.664 148.005 21.328 147.701 20.896C147.397 20.464 147.245 19.936 147.245 19.312C147.245 18.416 147.541 17.712 148.133 17.2C148.741 16.688 149.597 16.328 150.701 16.12L155.909 15.112V15.448L150.965 16.408C149.845 16.616 149.005 16.96 148.445 17.44C147.901 17.904 147.629 18.512 147.629 19.264C147.629 20.112 147.925 20.768 148.517 21.232C149.125 21.68 149.997 21.904 151.133 21.904C151.613 21.904 152.117 21.832 152.645 21.688C153.189 21.544 153.701 21.32 154.181 21.016C154.677 20.696 155.077 20.296 155.381 19.816C155.685 19.32 155.837 18.728 155.837 18.04V13.936ZM159.361 6.76V18.976C159.361 19.936 159.561 20.664 159.961 21.16C160.361 21.656 160.993 21.904 161.857 21.904C162.273 21.904 162.657 21.832 163.009 21.688C163.361 21.544 163.681 21.32 163.969 21.016L164.161 21.328C163.921 21.584 163.593 21.8 163.177 21.976C162.777 22.152 162.337 22.24 161.857 22.24C161.217 22.24 160.681 22.12 160.249 21.88C159.817 21.624 159.497 21.256 159.289 20.776C159.081 20.28 158.977 19.68 158.977 18.976V6.88L159.361 6.76ZM163.993 10V10.336H156.577V10H163.993Z" fill="#EF913C"/>
<path d="M64.9406 33.0989L60.3806 17.2589H64.7726L67.4606 29.7629L70.2926 17.2589H74.0366L76.9406 29.7389L79.5806 17.2589H83.8286L79.2446 33.0989H74.7566L72.8846 25.4189L72.1646 21.5549H72.1166L71.4206 25.4189L69.5726 33.0989H64.9406ZM83.6143 33.0989V16.0109H87.6943V23.2829C88.0463 22.4829 88.5503 21.8829 89.2063 21.4829C89.8623 21.0669 90.6223 20.8589 91.4863 20.8589C92.3183 20.8589 93.0383 21.0189 93.6463 21.3389C94.2703 21.6589 94.7583 22.1309 95.1103 22.7549C95.4623 23.3789 95.6383 24.1629 95.6383 25.1069V33.0989H91.5583V26.2349C91.5583 25.3709 91.3983 24.7789 91.0783 24.4589C90.7743 24.1229 90.3663 23.9549 89.8543 23.9549C89.4703 23.9549 89.1103 24.0509 88.7743 24.2429C88.4383 24.4349 88.1743 24.7389 87.9823 25.1549C87.7903 25.5709 87.6943 26.1149 87.6943 26.7869V33.0989H83.6143ZM103.273 25.4909C103.273 24.9309 103.113 24.4909 102.793 24.1709C102.489 23.8349 102.073 23.6669 101.545 23.6669C101.017 23.6669 100.561 23.8029 100.177 24.0749C99.8091 24.3309 99.5531 24.7949 99.4091 25.4669L95.9531 24.6509C96.1771 23.4989 96.7691 22.5789 97.7291 21.8909C98.6891 21.2029 100.041 20.8589 101.785 20.8589C102.953 20.8589 103.945 21.0349 104.761 21.3869C105.593 21.7229 106.225 22.2349 106.657 22.9229C107.105 23.5949 107.329 24.4269 107.329 25.4189V29.8109C107.329 30.4349 107.609 30.7469 108.169 30.7469C108.457 30.7469 108.689 30.7149 108.865 30.6509L108.625 32.9789C108.145 33.2029 107.561 33.3149 106.873 33.3149C106.249 33.3149 105.697 33.2189 105.217 33.0269C104.737 32.8189 104.361 32.5149 104.089 32.1149C103.817 31.6989 103.681 31.1789 103.681 30.5549V30.4109L104.137 30.2429C104.137 30.9309 103.929 31.5069 103.513 31.9709C103.113 32.4349 102.585 32.7789 101.929 33.0029C101.289 33.2269 100.617 33.3389 99.9131 33.3389C99.0971 33.3389 98.3851 33.2109 97.7771 32.9549C97.1691 32.6989 96.6971 32.3309 96.3611 31.8509C96.0411 31.3549 95.8811 30.7469 95.8811 30.0269C95.8811 29.1629 96.1371 28.4509 96.6491 27.8909C97.1771 27.3149 98.0011 26.9149 99.1211 26.6909L103.657 25.7549L103.633 27.9149L101.329 28.3949C100.849 28.4909 100.489 28.6349 100.249 28.8269C100.025 29.0029 99.9131 29.2749 99.9131 29.6429C99.9131 29.9949 100.041 30.2589 100.297 30.4349C100.553 30.6109 100.857 30.6989 101.209 30.6989C101.481 30.6989 101.737 30.6589 101.977 30.5789C102.233 30.4989 102.457 30.3789 102.649 30.2189C102.841 30.0429 102.993 29.8269 103.105 29.5709C103.217 29.3149 103.273 29.0109 103.273 28.6589V25.4909ZM113.103 17.2829V28.8269C113.103 29.4029 113.239 29.8189 113.511 30.0749C113.799 30.3149 114.191 30.4349 114.687 30.4349C115.071 30.4349 115.399 30.3949 115.671 30.3149C115.959 30.2189 116.215 30.0829 116.439 29.9069L116.871 32.4269C116.471 32.7149 115.967 32.9389 115.359 33.0989C114.751 33.2589 114.127 33.3389 113.487 33.3389C112.575 33.3389 111.783 33.2109 111.111 32.9549C110.455 32.6989 109.943 32.2909 109.575 31.7309C109.223 31.1709 109.039 30.4269 109.023 29.4989V18.4109L113.103 17.2829ZM116.679 21.0989V24.0029H106.959V21.0989H116.679Z" fill="white"/>
</svg>
