<svg width="250" height="91" viewBox="0 0 250 91" fill="none" xmlns="http://www.w3.org/2000/svg">
<path d="M203.766 61.16C206.342 61.16 208.286 61.808 209.598 63.104C210.91 64.4 211.566 66.312 211.566 68.84C211.566 71.512 210.91 73.544 209.598 74.936C208.286 76.312 206.342 77 203.766 77H198.894V61.16H203.766ZM203.766 76.664C206.198 76.664 208.038 76 209.286 74.672C210.55 73.344 211.182 71.4 211.182 68.84C211.182 66.424 210.55 64.6 209.286 63.368C208.038 62.12 206.198 61.496 203.766 61.496H199.278V76.664H203.766ZM217.82 64.76C218.924 64.76 219.892 65.008 220.724 65.504C221.572 66 222.228 66.72 222.692 67.664C223.172 68.592 223.412 69.704 223.412 71C223.412 72.296 223.172 73.416 222.692 74.36C222.228 75.288 221.572 76 220.724 76.496C219.892 76.992 218.924 77.24 217.82 77.24C216.716 77.24 215.74 76.992 214.892 76.496C214.06 76 213.404 75.288 212.924 74.36C212.444 73.416 212.204 72.296 212.204 71C212.204 69.704 212.444 68.592 212.924 67.664C213.404 66.72 214.06 66 214.892 65.504C215.74 65.008 216.716 64.76 217.82 64.76ZM217.82 65.096C216.796 65.096 215.892 65.336 215.108 65.816C214.324 66.28 213.708 66.952 213.26 67.832C212.812 68.712 212.588 69.768 212.588 71C212.588 72.216 212.812 73.272 213.26 74.168C213.708 75.048 214.324 75.728 215.108 76.208C215.892 76.672 216.796 76.904 217.82 76.904C218.844 76.904 219.748 76.672 220.532 76.208C221.316 75.728 221.924 75.048 222.356 74.168C222.804 73.272 223.028 72.216 223.028 71C223.028 69.768 222.804 68.712 222.356 67.832C221.924 66.952 221.316 66.28 220.532 65.816C219.748 65.336 218.844 65.096 217.82 65.096ZM227.803 60.92C228.779 60.92 229.611 61.112 230.299 61.496C231.003 61.88 231.547 62.408 231.931 63.08C232.315 63.752 232.507 64.512 232.507 65.36C232.507 66.256 232.339 67.008 232.003 67.616C231.683 68.224 231.171 68.736 230.467 69.152C229.779 69.568 228.875 69.936 227.755 70.256V73.4H227.371V70.04C228.571 69.672 229.515 69.296 230.203 68.912C230.907 68.512 231.403 68.04 231.691 67.496C231.979 66.936 232.123 66.224 232.123 65.36C232.123 64.576 231.947 63.88 231.595 63.272C231.243 62.648 230.747 62.16 230.107 61.808C229.467 61.44 228.699 61.256 227.803 61.256C226.395 61.256 225.315 61.6 224.563 62.288C223.827 62.96 223.371 63.904 223.195 65.12L222.859 64.976C223.003 64.128 223.275 63.4 223.675 62.792C224.075 62.184 224.619 61.72 225.307 61.4C225.995 61.08 226.827 60.92 227.803 60.92ZM227.563 76.064C227.723 76.064 227.851 76.112 227.947 76.208C228.043 76.304 228.091 76.432 228.091 76.592C228.091 76.752 228.043 76.88 227.947 76.976C227.851 77.072 227.723 77.12 227.563 77.12C227.403 77.12 227.275 77.072 227.179 76.976C227.083 76.88 227.035 76.752 227.035 76.592C227.035 76.432 227.083 76.304 227.179 76.208C227.275 76.112 227.403 76.064 227.563 76.064Z" fill="#EF913C"/>
<path d="M183.509 69.16C185.989 69.16 187.885 69.848 189.197 71.224C190.525 72.6 191.189 74.552 191.189 77.08C191.189 79.608 190.525 81.56 189.197 82.936C187.885 84.312 185.989 85 183.509 85H176.789V69.16H183.509ZM183.101 81.88C184.445 81.88 185.421 81.48 186.029 80.68C186.653 79.864 186.965 78.664 186.965 77.08C186.965 75.496 186.653 74.304 186.029 73.504C185.421 72.688 184.445 72.28 183.101 72.28H180.917V81.88H183.101ZM197.52 72.76C198.784 72.76 199.888 73.008 200.832 73.504C201.792 73.984 202.536 74.696 203.064 75.64C203.608 76.568 203.88 77.688 203.88 79C203.88 80.312 203.608 81.44 203.064 82.384C202.536 83.312 201.792 84.024 200.832 84.52C199.888 85 198.784 85.24 197.52 85.24C196.288 85.24 195.192 85 194.232 84.52C193.272 84.024 192.52 83.312 191.976 82.384C191.448 81.44 191.184 80.312 191.184 79C191.184 77.688 191.448 76.568 191.976 75.64C192.52 74.696 193.272 73.984 194.232 73.504C195.192 73.008 196.288 72.76 197.52 72.76ZM197.52 75.664C197.056 75.664 196.656 75.776 196.32 76C195.984 76.224 195.728 76.584 195.552 77.08C195.376 77.576 195.288 78.216 195.288 79C195.288 79.784 195.376 80.424 195.552 80.92C195.728 81.4 195.984 81.76 196.32 82C196.656 82.224 197.056 82.336 197.52 82.336C198 82.336 198.408 82.224 198.744 82C199.08 81.76 199.336 81.4 199.512 80.92C199.688 80.424 199.776 79.784 199.776 79C199.776 78.216 199.688 77.576 199.512 77.08C199.336 76.584 199.08 76.224 198.744 76C198.408 75.776 198 75.664 197.52 75.664ZM208.777 68.92C209.961 68.92 211.017 69.088 211.945 69.424C212.873 69.744 213.601 70.24 214.129 70.912C214.673 71.568 214.945 72.392 214.945 73.384C214.945 74.376 214.737 75.184 214.321 75.808C213.921 76.416 213.369 76.88 212.665 77.2C211.977 77.504 211.217 77.704 210.385 77.8L210.145 79.864H206.545L206.569 76.216C207.577 76.12 208.369 75.976 208.945 75.784C209.537 75.576 209.953 75.32 210.193 75.016C210.433 74.712 210.553 74.352 210.553 73.936C210.553 73.568 210.473 73.256 210.313 73C210.169 72.744 209.945 72.552 209.641 72.424C209.353 72.296 208.969 72.232 208.489 72.232C207.801 72.232 207.257 72.44 206.857 72.856C206.457 73.256 206.201 73.856 206.089 74.656L202.153 73.288C202.361 72.456 202.721 71.712 203.233 71.056C203.761 70.384 204.473 69.864 205.369 69.496C206.281 69.112 207.417 68.92 208.777 68.92ZM208.393 81.184C209.113 81.184 209.673 81.36 210.073 81.712C210.489 82.064 210.697 82.56 210.697 83.2C210.697 83.824 210.489 84.312 210.073 84.664C209.673 85.016 209.113 85.192 208.393 85.192C207.689 85.192 207.129 85.016 206.713 84.664C206.313 84.312 206.113 83.824 206.113 83.2C206.113 82.56 206.313 82.064 206.713 81.712C207.129 81.36 207.689 81.184 208.393 81.184Z" fill="white"/>
<path d="M124.846 47L119.614 31.16H120.022L125.11 46.616L129.718 31.16H130.222L134.83 46.616L139.918 31.16H140.326L135.094 47H134.59L130.966 34.952L129.982 31.688H129.958L128.998 34.952L125.35 47H124.846ZM144.91 47.24C143.854 47.24 142.902 46.992 142.054 46.496C141.222 46 140.558 45.288 140.062 44.36C139.582 43.416 139.342 42.296 139.342 41C139.342 39.688 139.582 38.568 140.062 37.64C140.542 36.712 141.182 36 141.982 35.504C142.798 35.008 143.71 34.76 144.718 34.76C145.774 34.76 146.678 35 147.43 35.48C148.182 35.96 148.758 36.648 149.158 37.544C149.574 38.424 149.782 39.48 149.782 40.712C149.782 40.728 149.782 40.752 149.782 40.784C149.782 40.816 149.782 40.848 149.782 40.88H139.534V40.52H149.614L149.446 40.664C149.43 39.016 149.014 37.68 148.198 36.656C147.398 35.616 146.238 35.096 144.718 35.096C143.79 35.096 142.942 35.336 142.174 35.816C141.422 36.28 140.822 36.952 140.374 37.832C139.942 38.712 139.726 39.768 139.726 41C139.726 42.232 139.95 43.288 140.398 44.168C140.846 45.048 141.462 45.728 142.246 46.208C143.03 46.672 143.918 46.904 144.91 46.904C145.886 46.904 146.774 46.664 147.574 46.184C148.374 45.704 148.974 45.048 149.374 44.216L149.686 44.384C149.414 44.976 149.038 45.488 148.558 45.92C148.078 46.336 147.526 46.664 146.902 46.904C146.278 47.128 145.614 47.24 144.91 47.24Z" fill="#EF913C"/>
<path d="M105.99 55L101.43 39.16H105.822L108.51 51.664L111.342 39.16H115.086L117.99 51.64L120.63 39.16H124.878L120.294 55H115.806L113.934 47.32L113.214 43.456H113.166L112.47 47.32L110.622 55H105.99ZM129.231 55.24C127.903 55.24 126.751 54.992 125.775 54.496C124.815 54 124.071 53.288 123.543 52.36C123.015 51.432 122.751 50.312 122.751 49C122.751 47.688 123.015 46.568 123.543 45.64C124.071 44.712 124.807 44 125.751 43.504C126.711 43.008 127.807 42.76 129.039 42.76C130.303 42.76 131.375 43.008 132.255 43.504C133.151 43.984 133.831 44.656 134.295 45.52C134.759 46.368 134.991 47.344 134.991 48.448C134.991 48.736 134.983 49.024 134.967 49.312C134.951 49.6 134.927 49.84 134.895 50.032H125.391V47.848H133.095L131.151 48.592C131.151 47.632 130.975 46.896 130.623 46.384C130.287 45.872 129.759 45.616 129.039 45.616C128.527 45.616 128.087 45.736 127.719 45.976C127.367 46.216 127.095 46.592 126.903 47.104C126.727 47.616 126.639 48.272 126.639 49.072C126.639 49.856 126.743 50.496 126.951 50.992C127.159 51.472 127.455 51.824 127.839 52.048C128.223 52.256 128.687 52.36 129.231 52.36C129.839 52.36 130.319 52.24 130.671 52C131.039 51.76 131.311 51.424 131.487 50.992L134.751 52.072C134.527 52.76 134.135 53.344 133.575 53.824C133.031 54.288 132.375 54.64 131.607 54.88C130.855 55.12 130.063 55.24 129.231 55.24Z" fill="white"/>
<path d="M35.832 22L30.6 6.16H31.008L36.096 21.616L40.704 6.16H41.208L45.816 21.616L50.904 6.16H51.312L46.08 22H45.576L41.952 9.952L40.968 6.688H40.944L39.984 9.952L36.336 22H35.832ZM51.9883 22V4.48H52.3723V13.168C52.6443 12.176 53.2283 11.36 54.1243 10.72C55.0203 10.064 56.1003 9.736 57.3643 9.736C58.2923 9.736 59.0843 9.912 59.7403 10.264C60.4123 10.6 60.9243 11.088 61.2763 11.728C61.6443 12.368 61.8283 13.152 61.8283 14.08V21.976H61.4443V14.128C61.4443 12.848 61.0683 11.856 60.3163 11.152C59.5803 10.432 58.5723 10.072 57.2923 10.072C56.3643 10.072 55.5243 10.288 54.7723 10.72C54.0363 11.152 53.4523 11.728 53.0203 12.448C52.5883 13.152 52.3723 13.92 52.3723 14.752V22H51.9883ZM71.5775 13.936C71.5775 12.752 71.2495 11.816 70.5935 11.128C69.9375 10.44 68.9935 10.096 67.7615 10.096C66.7535 10.096 65.8735 10.32 65.1215 10.768C64.3855 11.2 63.8335 11.92 63.4655 12.928L63.1535 12.688C63.5215 11.696 64.0975 10.96 64.8815 10.48C65.6815 10 66.6415 9.76 67.7615 9.76C68.6575 9.76 69.4175 9.928 70.0415 10.264C70.6655 10.584 71.1375 11.056 71.4575 11.68C71.7935 12.304 71.9615 13.056 71.9615 13.936V20.128C71.9615 21.28 72.4335 21.856 73.3775 21.856C73.7295 21.856 74.0015 21.792 74.1935 21.664L74.1695 22C73.9455 22.128 73.6575 22.192 73.3055 22.192C73.0655 22.192 72.8095 22.136 72.5375 22.024C72.2655 21.912 72.0335 21.704 71.8415 21.4C71.6655 21.08 71.5775 20.608 71.5775 19.984V18.88L71.7455 18.736C71.6335 19.52 71.3215 20.176 70.8095 20.704C70.3135 21.216 69.7055 21.6 68.9855 21.856C68.2815 22.112 67.5615 22.24 66.8255 22.24C66.0255 22.24 65.3375 22.128 64.7615 21.904C64.1855 21.664 63.7455 21.328 63.4415 20.896C63.1375 20.464 62.9855 19.936 62.9855 19.312C62.9855 18.416 63.2815 17.712 63.8735 17.2C64.4815 16.688 65.3375 16.328 66.4415 16.12L71.6495 15.112V15.448L66.7055 16.408C65.5855 16.616 64.7455 16.96 64.1855 17.44C63.6415 17.904 63.3695 18.512 63.3695 19.264C63.3695 20.112 63.6655 20.768 64.2575 21.232C64.8655 21.68 65.7375 21.904 66.8735 21.904C67.3535 21.904 67.8575 21.832 68.3855 21.688C68.9295 21.544 69.4415 21.32 69.9215 21.016C70.4175 20.696 70.8175 20.296 71.1215 19.816C71.4255 19.32 71.5775 18.728 71.5775 18.04V13.936ZM75.1016 6.76V18.976C75.1016 19.936 75.3016 20.664 75.7016 21.16C76.1016 21.656 76.7336 21.904 77.5976 21.904C78.0136 21.904 78.3976 21.832 78.7496 21.688C79.1016 21.544 79.4216 21.32 79.7096 21.016L79.9016 21.328C79.6616 21.584 79.3336 21.8 78.9176 21.976C78.5176 22.152 78.0776 22.24 77.5976 22.24C76.9576 22.24 76.4216 22.12 75.9896 21.88C75.5576 21.624 75.2376 21.256 75.0296 20.776C74.8216 20.28 74.7176 19.68 74.7176 18.976V6.88L75.1016 6.76ZM79.7336 10V10.336H72.3176V10H79.7336Z" fill="#EF913C"/>
<path d="M11.3206 32L6.76062 16.16H11.1526L13.8406 28.664L16.6726 16.16H20.4166L23.3206 28.64L25.9606 16.16H30.2086L25.6246 32H21.1366L19.2646 24.32L18.5446 20.456H18.4966L17.8006 24.32L15.9526 32H11.3206ZM29.9943 32V14.912H34.0743V22.184C34.4263 21.384 34.9303 20.784 35.5863 20.384C36.2423 19.968 37.0023 19.76 37.8663 19.76C38.6983 19.76 39.4183 19.92 40.0263 20.24C40.6503 20.56 41.1383 21.032 41.4903 21.656C41.8423 22.28 42.0183 23.064 42.0183 24.008V32H37.9383V25.136C37.9383 24.272 37.7783 23.68 37.4583 23.36C37.1543 23.024 36.7463 22.856 36.2343 22.856C35.8503 22.856 35.4903 22.952 35.1543 23.144C34.8183 23.336 34.5543 23.64 34.3623 24.056C34.1703 24.472 34.0743 25.016 34.0743 25.688V32H29.9943ZM49.6531 24.392C49.6531 23.832 49.4931 23.392 49.1731 23.072C48.8691 22.736 48.4531 22.568 47.9251 22.568C47.3971 22.568 46.9411 22.704 46.5571 22.976C46.1891 23.232 45.9331 23.696 45.7891 24.368L42.3331 23.552C42.5571 22.4 43.1491 21.48 44.1091 20.792C45.0691 20.104 46.4211 19.76 48.1651 19.76C49.3331 19.76 50.3251 19.936 51.1411 20.288C51.9731 20.624 52.6051 21.136 53.0371 21.824C53.4851 22.496 53.7091 23.328 53.7091 24.32V28.712C53.7091 29.336 53.9891 29.648 54.5491 29.648C54.8371 29.648 55.0691 29.616 55.2451 29.552L55.0051 31.88C54.5251 32.104 53.9411 32.216 53.2531 32.216C52.6291 32.216 52.0771 32.12 51.5971 31.928C51.1171 31.72 50.7411 31.416 50.4691 31.016C50.1971 30.6 50.0611 30.08 50.0611 29.456V29.312L50.5171 29.144C50.5171 29.832 50.3091 30.408 49.8931 30.872C49.4931 31.336 48.9651 31.68 48.3091 31.904C47.6691 32.128 46.9971 32.24 46.2931 32.24C45.4771 32.24 44.7651 32.112 44.1571 31.856C43.5491 31.6 43.0771 31.232 42.7411 30.752C42.4211 30.256 42.2611 29.648 42.2611 28.928C42.2611 28.064 42.5171 27.352 43.0291 26.792C43.5571 26.216 44.3811 25.816 45.5011 25.592L50.0371 24.656L50.0131 26.816L47.7091 27.296C47.2291 27.392 46.8691 27.536 46.6291 27.728C46.4051 27.904 46.2931 28.176 46.2931 28.544C46.2931 28.896 46.4211 29.16 46.6771 29.336C46.9331 29.512 47.2371 29.6 47.5891 29.6C47.8611 29.6 48.1171 29.56 48.3571 29.48C48.6131 29.4 48.8371 29.28 49.0291 29.12C49.2211 28.944 49.3731 28.728 49.4851 28.472C49.5971 28.216 49.6531 27.912 49.6531 27.56V24.392ZM59.4828 16.184V27.728C59.4828 28.304 59.6188 28.72 59.8908 28.976C60.1788 29.216 60.5708 29.336 61.0668 29.336C61.4508 29.336 61.7788 29.296 62.0508 29.216C62.3388 29.12 62.5948 28.984 62.8188 28.808L63.2508 31.328C62.8508 31.616 62.3468 31.84 61.7388 32C61.1308 32.16 60.5068 32.24 59.8668 32.24C58.9548 32.24 58.1628 32.112 57.4908 31.856C56.8348 31.6 56.3228 31.192 55.9548 30.632C55.6028 30.072 55.4188 29.328 55.4028 28.4V17.312L59.4828 16.184ZM63.0588 20V22.904H53.3388V20H63.0588Z" fill="white"/>
</svg>
