<svg width="385" height="82" viewBox="0 0 385 82" fill="none" xmlns="http://www.w3.org/2000/svg">
<path d="M319.866 55.7204C322.442 55.7204 324.386 56.3684 325.698 57.6644C327.01 58.9604 327.666 60.8724 327.666 63.4004C327.666 66.0724 327.01 68.1044 325.698 69.4964C324.386 70.8724 322.442 71.5604 319.866 71.5604H314.994V55.7204H319.866ZM319.866 71.2244C322.298 71.2244 324.138 70.5604 325.386 69.2324C326.65 67.9044 327.282 65.9604 327.282 63.4004C327.282 60.9844 326.65 59.1604 325.386 57.9284C324.138 56.6804 322.298 56.0564 319.866 56.0564H315.378V71.2244H319.866ZM333.92 59.3204C335.024 59.3204 335.992 59.5684 336.824 60.0644C337.672 60.5604 338.328 61.2804 338.792 62.2244C339.272 63.1524 339.512 64.2644 339.512 65.5604C339.512 66.8564 339.272 67.9764 338.792 68.9204C338.328 69.8484 337.672 70.5604 336.824 71.0564C335.992 71.5524 335.024 71.8004 333.92 71.8004C332.816 71.8004 331.84 71.5524 330.992 71.0564C330.16 70.5604 329.504 69.8484 329.024 68.9204C328.544 67.9764 328.304 66.8564 328.304 65.5604C328.304 64.2644 328.544 63.1524 329.024 62.2244C329.504 61.2804 330.16 60.5604 330.992 60.0644C331.84 59.5684 332.816 59.3204 333.92 59.3204ZM333.92 59.6564C332.896 59.6564 331.992 59.8964 331.208 60.3764C330.424 60.8404 329.808 61.5124 329.36 62.3924C328.912 63.2724 328.688 64.3284 328.688 65.5604C328.688 66.7764 328.912 67.8324 329.36 68.7284C329.808 69.6084 330.424 70.2884 331.208 70.7684C331.992 71.2324 332.896 71.4644 333.92 71.4644C334.944 71.4644 335.848 71.2324 336.632 70.7684C337.416 70.2884 338.024 69.6084 338.456 68.7284C338.904 67.8324 339.128 66.7764 339.128 65.5604C339.128 64.3284 338.904 63.2724 338.456 62.3924C338.024 61.5124 337.416 60.8404 336.632 60.3764C335.848 59.8964 334.944 59.6564 333.92 59.6564ZM343.903 55.4804C344.879 55.4804 345.711 55.6724 346.399 56.0564C347.103 56.4404 347.647 56.9684 348.031 57.6404C348.415 58.3124 348.607 59.0724 348.607 59.9204C348.607 60.8164 348.439 61.5684 348.103 62.1764C347.783 62.7844 347.271 63.2964 346.567 63.7124C345.879 64.1284 344.975 64.4964 343.855 64.8164V67.9604H343.471V64.6004C344.671 64.2324 345.615 63.8564 346.303 63.4724C347.007 63.0724 347.503 62.6004 347.791 62.0564C348.079 61.4964 348.223 60.7844 348.223 59.9204C348.223 59.1364 348.047 58.4404 347.695 57.8324C347.343 57.2084 346.847 56.7204 346.207 56.3684C345.567 56.0004 344.799 55.8164 343.903 55.8164C342.495 55.8164 341.415 56.1604 340.663 56.8484C339.927 57.5204 339.471 58.4644 339.295 59.6804L338.959 59.5364C339.103 58.6884 339.375 57.9604 339.775 57.3524C340.175 56.7444 340.719 56.2804 341.407 55.9604C342.095 55.6404 342.927 55.4804 343.903 55.4804ZM343.663 70.6244C343.823 70.6244 343.951 70.6724 344.047 70.7684C344.143 70.8644 344.191 70.9924 344.191 71.1524C344.191 71.3124 344.143 71.4404 344.047 71.5364C343.951 71.6324 343.823 71.6804 343.663 71.6804C343.503 71.6804 343.375 71.6324 343.279 71.5364C343.183 71.4404 343.135 71.3124 343.135 71.1524C343.135 70.9924 343.183 70.8644 343.279 70.7684C343.375 70.6724 343.503 70.6244 343.663 70.6244Z" fill="#EF913C"/>
<path d="M289.079 62.9293C291.559 62.9293 293.455 63.6173 294.767 64.9933C296.095 66.3693 296.759 68.3213 296.759 70.8493C296.759 73.3773 296.095 75.3293 294.767 76.7053C293.455 78.0813 291.559 78.7693 289.079 78.7693H282.359V62.9293H289.079ZM288.671 75.6493C290.015 75.6493 290.991 75.2493 291.599 74.4493C292.223 73.6333 292.535 72.4333 292.535 70.8493C292.535 69.2653 292.223 68.0733 291.599 67.2733C290.991 66.4573 290.015 66.0493 288.671 66.0493H286.487V75.6493H288.671ZM303.09 66.5293C304.354 66.5293 305.458 66.7773 306.402 67.2733C307.362 67.7533 308.106 68.4653 308.634 69.4093C309.178 70.3373 309.45 71.4573 309.45 72.7693C309.45 74.0813 309.178 75.2093 308.634 76.1533C308.106 77.0813 307.362 77.7933 306.402 78.2893C305.458 78.7693 304.354 79.0093 303.09 79.0093C301.858 79.0093 300.762 78.7693 299.802 78.2893C298.842 77.7933 298.09 77.0813 297.546 76.1533C297.018 75.2093 296.754 74.0813 296.754 72.7693C296.754 71.4573 297.018 70.3373 297.546 69.4093C298.09 68.4653 298.842 67.7533 299.802 67.2733C300.762 66.7773 301.858 66.5293 303.09 66.5293ZM303.09 69.4333C302.626 69.4333 302.226 69.5453 301.89 69.7693C301.554 69.9933 301.298 70.3533 301.122 70.8493C300.946 71.3453 300.858 71.9853 300.858 72.7693C300.858 73.5533 300.946 74.1933 301.122 74.6893C301.298 75.1693 301.554 75.5293 301.89 75.7693C302.226 75.9933 302.626 76.1053 303.09 76.1053C303.57 76.1053 303.978 75.9933 304.314 75.7693C304.65 75.5293 304.906 75.1693 305.082 74.6893C305.258 74.1933 305.346 73.5533 305.346 72.7693C305.346 71.9853 305.258 71.3453 305.082 70.8493C304.906 70.3533 304.65 69.9933 304.314 69.7693C303.978 69.5453 303.57 69.4333 303.09 69.4333ZM314.347 62.6893C315.531 62.6893 316.587 62.8573 317.515 63.1933C318.443 63.5133 319.171 64.0093 319.699 64.6813C320.243 65.3373 320.515 66.1613 320.515 67.1533C320.515 68.1453 320.307 68.9533 319.891 69.5773C319.491 70.1853 318.939 70.6493 318.235 70.9693C317.547 71.2733 316.787 71.4733 315.955 71.5693L315.715 73.6333H312.115L312.139 69.9853C313.147 69.8893 313.939 69.7453 314.515 69.5533C315.107 69.3453 315.523 69.0893 315.763 68.7853C316.003 68.4813 316.123 68.1213 316.123 67.7053C316.123 67.3373 316.043 67.0253 315.883 66.7693C315.739 66.5133 315.515 66.3213 315.211 66.1933C314.923 66.0653 314.539 66.0013 314.059 66.0013C313.371 66.0013 312.827 66.2093 312.427 66.6253C312.027 67.0253 311.771 67.6253 311.659 68.4253L307.723 67.0573C307.931 66.2253 308.291 65.4813 308.803 64.8253C309.331 64.1533 310.043 63.6333 310.939 63.2653C311.851 62.8813 312.987 62.6893 314.347 62.6893ZM313.963 74.9533C314.683 74.9533 315.243 75.1293 315.643 75.4813C316.059 75.8333 316.267 76.3293 316.267 76.9693C316.267 77.5933 316.059 78.0813 315.643 78.4333C315.243 78.7853 314.683 78.9613 313.963 78.9613C313.259 78.9613 312.699 78.7853 312.283 78.4333C311.883 78.0813 311.683 77.5933 311.683 76.9693C311.683 76.3293 311.883 75.8333 312.283 75.4813C312.699 75.1293 313.259 74.9533 313.963 74.9533Z" fill="white"/>
<path d="M197.746 44.5275L192.514 28.6875H192.922L198.01 44.1435L202.618 28.6875H203.122L207.73 44.1435L212.818 28.6875H213.226L207.994 44.5275H207.49L203.866 32.4795L202.882 29.2155H202.858L201.898 32.4795L198.25 44.5275H197.746ZM217.81 44.7675C216.754 44.7675 215.802 44.5195 214.954 44.0235C214.122 43.5275 213.458 42.8155 212.962 41.8875C212.482 40.9435 212.242 39.8235 212.242 38.5275C212.242 37.2155 212.482 36.0955 212.962 35.1675C213.442 34.2395 214.082 33.5275 214.882 33.0315C215.698 32.5355 216.61 32.2875 217.618 32.2875C218.674 32.2875 219.578 32.5275 220.33 33.0075C221.082 33.4875 221.658 34.1755 222.058 35.0715C222.474 35.9515 222.682 37.0075 222.682 38.2395C222.682 38.2555 222.682 38.2795 222.682 38.3115C222.682 38.3435 222.682 38.3755 222.682 38.4075H212.434V38.0475H222.514L222.346 38.1915C222.33 36.5435 221.914 35.2075 221.098 34.1835C220.298 33.1435 219.138 32.6235 217.618 32.6235C216.69 32.6235 215.842 32.8635 215.074 33.3435C214.322 33.8075 213.722 34.4795 213.274 35.3595C212.842 36.2395 212.626 37.2955 212.626 38.5275C212.626 39.7595 212.85 40.8155 213.298 41.6955C213.746 42.5755 214.362 43.2555 215.146 43.7355C215.93 44.1995 216.818 44.4315 217.81 44.4315C218.786 44.4315 219.674 44.1915 220.474 43.7115C221.274 43.2315 221.874 42.5755 222.274 41.7435L222.586 41.9115C222.314 42.5035 221.938 43.0155 221.458 43.4475C220.978 43.8635 220.426 44.1915 219.802 44.4315C219.178 44.6555 218.514 44.7675 217.81 44.7675Z" fill="#EF913C"/>
<path d="M169.98 51.7362L165.42 35.8962H169.812L172.5 48.4002L175.332 35.8962H179.076L181.98 48.3762L184.62 35.8962H188.868L184.284 51.7362H179.796L177.924 44.0562L177.204 40.1922H177.156L176.46 44.0562L174.612 51.7362H169.98ZM193.221 51.9762C191.893 51.9762 190.741 51.7282 189.765 51.2322C188.805 50.7362 188.061 50.0242 187.533 49.0962C187.005 48.1682 186.741 47.0482 186.741 45.7362C186.741 44.4242 187.005 43.3042 187.533 42.3762C188.061 41.4482 188.797 40.7362 189.741 40.2402C190.701 39.7442 191.797 39.4962 193.029 39.4962C194.293 39.4962 195.365 39.7442 196.245 40.2402C197.141 40.7202 197.821 41.3922 198.285 42.2562C198.749 43.1042 198.981 44.0802 198.981 45.1842C198.981 45.4722 198.973 45.7602 198.957 46.0482C198.941 46.3362 198.917 46.5762 198.885 46.7682H189.381V44.5842H197.085L195.141 45.3282C195.141 44.3682 194.965 43.6322 194.613 43.1202C194.277 42.6082 193.749 42.3522 193.029 42.3522C192.517 42.3522 192.077 42.4722 191.709 42.7122C191.357 42.9522 191.085 43.3282 190.893 43.8402C190.717 44.3522 190.629 45.0082 190.629 45.8082C190.629 46.5922 190.733 47.2322 190.941 47.7282C191.149 48.2082 191.445 48.5602 191.829 48.7842C192.213 48.9922 192.677 49.0962 193.221 49.0962C193.829 49.0962 194.309 48.9762 194.661 48.7362C195.029 48.4962 195.301 48.1602 195.477 47.7282L198.741 48.8082C198.517 49.4962 198.125 50.0802 197.565 50.5602C197.021 51.0242 196.365 51.3762 195.597 51.6162C194.845 51.8562 194.053 51.9762 193.221 51.9762Z" fill="white"/>
<path d="M65.532 22L60.3 6.16H60.708L65.796 21.616L70.404 6.16H70.908L75.516 21.616L80.604 6.16H81.012L75.78 22H75.276L71.652 9.952L70.668 6.688H70.644L69.684 9.952L66.036 22H65.532ZM81.6883 22V4.48H82.0723V13.168C82.3443 12.176 82.9283 11.36 83.8243 10.72C84.7203 10.064 85.8003 9.736 87.0643 9.736C87.9923 9.736 88.7843 9.912 89.4403 10.264C90.1123 10.6 90.6243 11.088 90.9763 11.728C91.3443 12.368 91.5283 13.152 91.5283 14.08V21.976H91.1443V14.128C91.1443 12.848 90.7683 11.856 90.0163 11.152C89.2803 10.432 88.2723 10.072 86.9923 10.072C86.0643 10.072 85.2243 10.288 84.4723 10.72C83.7363 11.152 83.1523 11.728 82.7203 12.448C82.2883 13.152 82.0723 13.92 82.0723 14.752V22H81.6883ZM101.278 13.936C101.278 12.752 100.95 11.816 100.294 11.128C99.6376 10.44 98.6936 10.096 97.4616 10.096C96.4536 10.096 95.5736 10.32 94.8216 10.768C94.0856 11.2 93.5336 11.92 93.1656 12.928L92.8536 12.688C93.2216 11.696 93.7976 10.96 94.5816 10.48C95.3816 10 96.3416 9.76 97.4616 9.76C98.3576 9.76 99.1176 9.928 99.7416 10.264C100.366 10.584 100.838 11.056 101.158 11.68C101.494 12.304 101.662 13.056 101.662 13.936V20.128C101.662 21.28 102.134 21.856 103.078 21.856C103.43 21.856 103.702 21.792 103.894 21.664L103.87 22C103.646 22.128 103.358 22.192 103.006 22.192C102.766 22.192 102.51 22.136 102.238 22.024C101.966 21.912 101.734 21.704 101.542 21.4C101.366 21.08 101.278 20.608 101.278 19.984V18.88L101.446 18.736C101.334 19.52 101.022 20.176 100.51 20.704C100.014 21.216 99.4056 21.6 98.6856 21.856C97.9816 22.112 97.2616 22.24 96.5256 22.24C95.7256 22.24 95.0376 22.128 94.4616 21.904C93.8856 21.664 93.4456 21.328 93.1416 20.896C92.8376 20.464 92.6856 19.936 92.6856 19.312C92.6856 18.416 92.9816 17.712 93.5736 17.2C94.1816 16.688 95.0376 16.328 96.1416 16.12L101.35 15.112V15.448L96.4056 16.408C95.2856 16.616 94.4456 16.96 93.8856 17.44C93.3416 17.904 93.0696 18.512 93.0696 19.264C93.0696 20.112 93.3656 20.768 93.9576 21.232C94.5656 21.68 95.4376 21.904 96.5736 21.904C97.0536 21.904 97.5576 21.832 98.0856 21.688C98.6296 21.544 99.1416 21.32 99.6216 21.016C100.118 20.696 100.518 20.296 100.822 19.816C101.126 19.32 101.278 18.728 101.278 18.04V13.936ZM104.802 6.76V18.976C104.802 19.936 105.002 20.664 105.402 21.16C105.802 21.656 106.434 21.904 107.298 21.904C107.714 21.904 108.098 21.832 108.45 21.688C108.802 21.544 109.122 21.32 109.41 21.016L109.602 21.328C109.362 21.584 109.034 21.8 108.618 21.976C108.218 22.152 107.778 22.24 107.298 22.24C106.658 22.24 106.122 22.12 105.69 21.88C105.258 21.624 104.938 21.256 104.73 20.776C104.522 20.28 104.418 19.68 104.418 18.976V6.88L104.802 6.76ZM109.434 10V10.336H102.018V10H109.434Z" fill="#EF913C"/>
<path d="M30.2206 31.011L25.6606 15.171H30.0526L32.7406 27.675L35.5726 15.171H39.3166L42.2206 27.651L44.8606 15.171H49.1086L44.5246 31.011H40.0366L38.1646 23.331L37.4446 19.467H37.3966L36.7006 23.331L34.8526 31.011H30.2206ZM48.8943 31.011V13.923H52.9743V21.195C53.3263 20.395 53.8303 19.795 54.4863 19.395C55.1423 18.979 55.9023 18.771 56.7663 18.771C57.5983 18.771 58.3183 18.931 58.9263 19.251C59.5503 19.571 60.0383 20.043 60.3903 20.667C60.7423 21.291 60.9183 22.075 60.9183 23.019V31.011H56.8383V24.147C56.8383 23.283 56.6783 22.691 56.3583 22.371C56.0543 22.035 55.6463 21.867 55.1343 21.867C54.7503 21.867 54.3903 21.963 54.0543 22.155C53.7183 22.347 53.4543 22.651 53.2623 23.067C53.0703 23.483 52.9743 24.027 52.9743 24.699V31.011H48.8943ZM68.5531 23.403C68.5531 22.843 68.3931 22.403 68.0731 22.083C67.7691 21.747 67.3531 21.579 66.8251 21.579C66.2971 21.579 65.8411 21.715 65.4571 21.987C65.0891 22.243 64.8331 22.707 64.6891 23.379L61.2331 22.563C61.4571 21.411 62.0491 20.491 63.0091 19.803C63.9691 19.115 65.3211 18.771 67.0651 18.771C68.2331 18.771 69.2251 18.947 70.0411 19.299C70.8731 19.635 71.5051 20.147 71.9371 20.835C72.3851 21.507 72.6091 22.339 72.6091 23.331V27.723C72.6091 28.347 72.8891 28.659 73.4491 28.659C73.7371 28.659 73.9691 28.627 74.1451 28.563L73.9051 30.891C73.4251 31.115 72.8411 31.227 72.1531 31.227C71.5291 31.227 70.9771 31.131 70.4971 30.939C70.0171 30.731 69.6411 30.427 69.3691 30.027C69.0971 29.611 68.9611 29.091 68.9611 28.467V28.323L69.4171 28.155C69.4171 28.843 69.2091 29.419 68.7931 29.883C68.3931 30.347 67.8651 30.691 67.2091 30.915C66.5691 31.139 65.8971 31.251 65.1931 31.251C64.3771 31.251 63.6651 31.123 63.0571 30.867C62.4491 30.611 61.9771 30.243 61.6411 29.763C61.3211 29.267 61.1611 28.659 61.1611 27.939C61.1611 27.075 61.4171 26.363 61.9291 25.803C62.4571 25.227 63.2811 24.827 64.4011 24.603L68.9371 23.667L68.9131 25.827L66.6091 26.307C66.1291 26.403 65.7691 26.547 65.5291 26.739C65.3051 26.915 65.1931 27.187 65.1931 27.555C65.1931 27.907 65.3211 28.171 65.5771 28.347C65.8331 28.523 66.1371 28.611 66.4891 28.611C66.7611 28.611 67.0171 28.571 67.2571 28.491C67.5131 28.411 67.7371 28.291 67.9291 28.131C68.1211 27.955 68.2731 27.739 68.3851 27.483C68.4971 27.227 68.5531 26.923 68.5531 26.571V23.403ZM78.3828 15.195V26.739C78.3828 27.315 78.5188 27.731 78.7908 27.987C79.0788 28.227 79.4708 28.347 79.9668 28.347C80.3508 28.347 80.6788 28.307 80.9508 28.227C81.2388 28.131 81.4948 27.995 81.7188 27.819L82.1508 30.339C81.7508 30.627 81.2468 30.851 80.6388 31.011C80.0308 31.171 79.4068 31.251 78.7668 31.251C77.8548 31.251 77.0628 31.123 76.3908 30.867C75.7348 30.611 75.2228 30.203 74.8548 29.643C74.5028 29.083 74.3188 28.339 74.3028 27.411V16.323L78.3828 15.195ZM81.9588 19.011V21.915H72.2388V19.011H81.9588Z" fill="white"/>
</svg>
